  0
SECTION
  2
HEADER
  9
$ACADVER
  1
AC1014
  9
$HANDSEED
  5
FFFF
  9
$MEASUREMENT
 70
     1
  0
ENDSEC
  0
SECTION
  2
TABLES
  0
TABLE
  2
VPORT
  5
8
330
0
100
AcDbSymbolTable
 70
     4
  0
VPORT
  5
2E
330
8
100
AcDbSymbolTableRecord
100
AcDbViewportTableRecord
  2
*ACTIVE
 70
     0
 10
0.0
 20
0.0
 11
1.0
 21
1.0
 12
210.0
 22
148.5
 13
0.0
 23
0.0
 14
10.0
 24
10.0
 15
10.0
 25
10.0
 16
0.0
 26
0.0
 36
1.0
 17
0.0
 27
0.0
 37
0.0
 40
341.0
 41
1.24
 42
50.0
 43
0.0
 44
0.0
 50
0.0
 51
0.0
 71
     0
 72
   100
 73
     1
 74
     3
 75
     0
 76
     0
 77
     0
 78
     0
  0
ENDTAB
  0
TABLE
  2
LTYPE
  5
5
330
0
100
AcDbSymbolTable
 70
     1
  0
LTYPE
  5
14
330
5
100
AcDbSymbolTableRecord
100
AcDbLinetypeTableRecord
  2
BYBLOCK
 70
     0
  3

 72
    65
 73
     0
 40
0.0
  0
LTYPE
  5
15
330
5
100
AcDbSymbolTableRecord
100
AcDbLinetypeTableRecord
  2
BYLAYER
 70
     0
  3

 72
    65
 73
     0
 40
0.0
  0
LTYPE
  5
16
330
5
100
AcDbSymbolTableRecord
100
AcDbLinetypeTableRecord
  2
CONTINUOUS
 70
     0
  3
Solid line
 72
    65
 73
     0
 40
0.0
  0
ENDTAB
  0
TABLE
  2
LAYER
  5
2
100
AcDbSymbolTable
 70
1
  0
LAYER
  5
50
100
AcDbSymbolTableRecord
100
AcDbLayerTableRecord
  2
0
 70
0
  6
CONTINUOUS
  0
ENDTAB
  0
TABLE
  2
STYLE
  5
3
330
0
100
AcDbSymbolTable
 70
     1
  0
STYLE
  5
11
330
3
100
AcDbSymbolTableRecord
100
AcDbTextStyleTableRecord
  2
STANDARD
 70
     0
 40
0.0
 41
1.0
 50
0.0
 71
     0
 42
2.5
  3
txt
  4

  0
ENDTAB
  0
TABLE
  2
VIEW
  5
6
330
0
100
AcDbSymbolTable
 70
     0
  0
ENDTAB
  0
TABLE
  2
UCS
  5
7
330
0
100
AcDbSymbolTable
 70
     0
  0
ENDTAB
  0
TABLE
  2
APPID
  5
9
330
0
100
AcDbSymbolTable
 70
     2
  0
APPID
  5
12
330
9
100
AcDbSymbolTableRecord
100
AcDbRegAppTableRecord
  2
ACAD
 70
     0
  0
ENDTAB
  0
TABLE
  2
DIMSTYLE
  5
A
330
0
100
AcDbSymbolTable
 70
     1
  0
DIMSTYLE
105
27
330
A
100
AcDbSymbolTableRecord
100
AcDbDimStyleTableRecord
  2
ISO-25
 70
     0
  3

  4

  5

  6

  7

 40
1.0
 41
2.5
 42
0.625
 43
3.75
 44
1.25
 45
0.0
 46
0.0
 47
0.0
 48
0.0
140
2.5
141
2.5
142
0.0
143
0.03937007874016
144
1.0
145
0.0
146
1.0
147
0.625
 71
     0
 72
     0
 73
     0
 74
     0
 75
     0
 76
     0
 77
     1
 78
     8
170
     0
171
     3
172
     1
173
     0
174
     0
175
     0
176
     0
177
     0
178
     0
270
     2
271
     2
272
     2
273
     2
274
     3
340
11
275
     0
280
     0
281
     0
282
     0
283
     0
284
     8
285
     0
286
     0
287
     3
288
     0
  0
ENDTAB
  0
TABLE
  2
BLOCK_RECORD
  5
1
330
0
100
AcDbSymbolTable
 70
     1
  0
BLOCK_RECORD
  5
1F
330
1
100
AcDbSymbolTableRecord
100
AcDbBlockTableRecord
  2
*MODEL_SPACE
  0
BLOCK_RECORD
  5
1B
330
1
100
AcDbSymbolTableRecord
100
AcDbBlockTableRecord
  2
*PAPER_SPACE
  0
ENDTAB
  0
ENDSEC
  0
SECTION
  2
BLOCKS
  0
BLOCK
  5
20
330
1F
100
AcDbEntity
  8
0
100
AcDbBlockBegin
  2
*MODEL_SPACE
 70
     0
 10
0.0
 20
0.0
 30
0.0
  3
*MODEL_SPACE
  1

  0
ENDBLK
  5
21
330
1F
100
AcDbEntity
  8
0
100
AcDbBlockEnd
  0
BLOCK
  5
1C
330
1B
100
AcDbEntity
 67
     1
  8
0
100
AcDbBlockBegin
  2
*PAPER_SPACE
  1

  0
ENDBLK
  5
1D
330
1B
100
AcDbEntity
 67
     1
  8
0
100
AcDbBlockEnd
  0
ENDSEC
  0
SECTION
  2
ENTITIES
  0
LWPOLYLINE
  5
100
100
AcDbEntity
  8
0
 62
7
100
AcDbPolyline
 90
2
 70
0
 10
89.548306
 20
-105.732186
 30
0.0
 10
107.048323
 20
-105.732186
 30
0.0
  0
LWPOLYLINE
  5
101
100
AcDbEntity
  8
0
 62
7
100
AcDbPolyline
 90
2
 70
0
 10
107.048323
 20
-119.932199
 30
0.0
 10
107.048323
 20
-105.732186
 30
0.0
  0
LWPOLYLINE
  5
102
100
AcDbEntity
  8
0
 62
7
100
AcDbPolyline
 90
2
 70
0
 10
107.048323
 20
-119.932199
 30
0.0
 10
89.548306
 20
-119.932199
 30
0.0
  0
LWPOLYLINE
  5
103
100
AcDbEntity
  8
0
 62
7
100
AcDbPolyline
 90
2
 70
0
 10
89.548306
 20
-105.732186
 30
0.0
 10
89.548306
 20
-119.932199
 30
0.0
  0
LWPOLYLINE
  5
104
100
AcDbEntity
  8
0
 62
7
100
AcDbPolyline
 90
2
 70
0
 10
132.827573
 20
-112.482170
 30
0.0
 10
147.983033
 20
-121.232179
 30
0.0
  0
LWPOLYLINE
  5
105
100
AcDbEntity
  8
0
 62
7
100
AcDbPolyline
 90
2
 70
0
 10
140.883026
 20
-133.529750
 30
0.0
 10
147.983033
 20
-121.232179
 30
0.0
  0
LWPOLYLINE
  5
106
100
AcDbEntity
  8
0
 62
7
100
AcDbPolyline
 90
2
 70
0
 10
132.827573
 20
-112.482170
 30
0.0
 10
125.727567
 20
-124.779742
 30
0.0
  0
SPLINE
  5
107
100
AcDbEntity
  8
0
 62
7
100
AcDbSpline
 70
8
 71
3
 72
8
 73
4
 74
0
 40
0
 40
0
 40
0
 40
0
 40
1
 40
1
 40
1
 40
1
 10
130.710326
 20
-108.733905
 30
0.0
 10
130.693997
 20
-109.016866
 30
0.0
 10
130.838588
 20
-109.284859
 30
0.0
 10
131.084046
 20
-109.426577
 30
0.0
  0
SPLINE
  5
108
100
AcDbEntity
  8
0
 62
7
100
AcDbSpline
 70
8
 71
3
 72
8
 73
4
 74
0
 40
0
 40
0
 40
0
 40
0
 40
1
 40
1
 40
1
 40
1
 10
149.252788
 20
-120.782010
 30
0.0
 10
149.459883
 20
-120.423283
 30
0.0
 10
149.336970
 20
-119.964594
 30
0.0
 10
148.978251
 20
-119.757487
 30
0.0
  0
LWPOLYLINE
  5
109
100
AcDbEntity
  8
0
 62
7
100
AcDbPolyline
 90
2
 70
0
 10
140.883026
 20
-133.529750
 30
0.0
 10
125.727567
 20
-124.779742
 30
0.0
  0
LWPOLYLINE
  5
10a
100
AcDbEntity
  8
0
 62
7
100
AcDbPolyline
 90
2
 70
0
 10
130.709798
 20
-64.150354
 30
0.0
 10
130.710311
 20
-108.733904
 30
0.0
  0
SPLINE
  5
10b
100
AcDbEntity
  8
0
 62
7
100
AcDbSpline
 70
8
 71
3
 72
8
 73
4
 74
0
 40
0
 40
0
 40
0
 40
0
 40
1
 40
1
 40
1
 40
1
 10
132.709743
 20
-62.150139
 30
0.0
 10
131.605164
 20
-62.150296
 30
0.0
 10
130.709806
 20
-63.045775
 30
0.0
 10
130.709798
 20
-64.150354
 30
0.0
  0
LWPOLYLINE
  5
10c
100
AcDbEntity
  8
0
 62
7
100
AcDbPolyline
 90
2
 70
0
 10
132.709743
 20
-62.150171
 30
0.0
 10
147.491084
 20
-62.149717
 30
0.0
  0
SPLINE
  5
10d
100
AcDbEntity
  8
0
 62
7
100
AcDbSpline
 70
8
 71
3
 72
8
 73
4
 74
0
 40
0
 40
0
 40
0
 40
0
 40
1
 40
1
 40
1
 40
1
 10
127.524866
 20
-114.071287
 30
0.0
 10
126.513710
 20
-114.071287
 30
0.0
 10
125.602118
 20
-114.680393
 30
0.0
 10
125.215165
 20
-115.614580
 30
0.0
  0
SPLINE
  5
10e
100
AcDbEntity
  8
0
 62
7
100
AcDbSpline
 70
8
 71
3
 72
8
 73
4
 74
0
 40
0
 40
0
 40
0
 40
0
 40
1
 40
1
 40
1
 40
1
 10
125.215165
 20
-115.614580
 30
0.0
 10
124.828213
 20
-116.548767
 30
0.0
 10
125.042102
 20
-117.624062
 30
0.0
 10
125.757098
 20
-118.339058
 30
0.0
  0
SPLINE
  5
10f
100
AcDbEntity
  8
0
 62
7
100
AcDbSpline
 70
8
 71
3
 72
8
 73
4
 74
0
 40
0
 40
0
 40
0
 40
0
 40
1
 40
1
 40
1
 40
1
 10
125.757098
 20
-118.339058
 30
0.0
 10
126.472093
 20
-119.054054
 30
0.0
 10
127.547389
 20
-119.267943
 30
0.0
 10
128.481576
 20
-118.880990
 30
0.0
  0
SPLINE
  5
110
100
AcDbEntity
  8
0
 62
7
100
AcDbSpline
 70
8
 71
3
 72
8
 73
4
 74
0
 40
0
 40
0
 40
0
 40
0
 40
1
 40
1
 40
1
 40
1
 10
128.481576
 20
-118.880990
 30
0.0
 10
129.415763
 20
-118.494037
 30
0.0
 10
130.024869
 20
-117.582446
 30
0.0
 10
130.024869
 20
-116.571289
 30
0.0
  0
SPLINE
  5
111
100
AcDbEntity
  8
0
 62
7
100
AcDbSpline
 70
8
 71
3
 72
8
 73
4
 74
0
 40
0
 40
0
 40
0
 40
0
 40
1
 40
1
 40
1
 40
1
 10
130.024869
 20
-116.571289
 30
0.0
 10
130.024869
 20
-115.908247
 30
0.0
 10
129.761476
 20
-115.272362
 30
0.0
 10
129.292635
 20
-114.803521
 30
0.0
  0
SPLINE
  5
112
100
AcDbEntity
  8
0
 62
7
100
AcDbSpline
 70
8
 71
3
 72
8
 73
4
 74
0
 40
0
 40
0
 40
0
 40
0
 40
1
 40
1
 40
1
 40
1
 10
129.292635
 20
-114.803521
 30
0.0
 10
128.823794
 20
-114.334679
 30
0.0
 10
128.187908
 20
-114.071287
 30
0.0
 10
127.524866
 20
-114.071287
 30
0.0
  0
LWPOLYLINE
  5
113
100
AcDbEntity
  8
0
 62
7
100
AcDbPolyline
 90
2
 70
0
 10
148.978251
 20
-119.757486
 30
0.0
 10
131.061530
 20
-109.413580
 30
0.0
  0
SPLINE
  5
114
100
AcDbEntity
  8
0
 62
7
100
AcDbSpline
 70
8
 71
3
 72
8
 73
4
 74
0
 40
0
 40
0
 40
0
 40
0
 40
1
 40
1
 40
1
 40
1
 10
112.335330
 20
-66.644648
 30
0.0
 10
111.324173
 20
-66.644648
 30
0.0
 10
110.412582
 20
-67.253754
 30
0.0
 10
110.025629
 20
-68.187941
 30
0.0
  0
SPLINE
  5
115
100
AcDbEntity
  8
0
 62
7
100
AcDbSpline
 70
8
 71
3
 72
8
 73
4
 74
0
 40
0
 40
0
 40
0
 40
0
 40
1
 40
1
 40
1
 40
1
 10
110.025629
 20
-68.187941
 30
0.0
 10
109.638676
 20
-69.122127
 30
0.0
 10
109.852566
 20
-70.197423
 30
0.0
 10
110.567561
 20
-70.912419
 30
0.0
  0
SPLINE
  5
116
100
AcDbEntity
  8
0
 62
7
100
AcDbSpline
 70
8
 71
3
 72
8
 73
4
 74
0
 40
0
 40
0
 40
0
 40
0
 40
1
 40
1
 40
1
 40
1
 10
110.567561
 20
-70.912419
 30
0.0
 10
111.282557
 20
-71.627414
 30
0.0
 10
112.357853
 20
-71.841304
 30
0.0
 10
113.292039
 20
-71.454351
 30
0.0
  0
SPLINE
  5
117
100
AcDbEntity
  8
0
 62
7
100
AcDbSpline
 70
8
 71
3
 72
8
 73
4
 74
0
 40
0
 40
0
 40
0
 40
0
 40
1
 40
1
 40
1
 40
1
 10
113.292039
 20
-71.454351
 30
0.0
 10
114.226226
 20
-71.067398
 30
0.0
 10
114.835332
 20
-70.155807
 30
0.0
 10
114.835332
 20
-69.144650
 30
0.0
  0
SPLINE
  5
118
100
AcDbEntity
  8
0
 62
7
100
AcDbSpline
 70
8
 71
3
 72
8
 73
4
 74
0
 40
0
 40
0
 40
0
 40
0
 40
1
 40
1
 40
1
 40
1
 10
114.835332
 20
-69.144650
 30
0.0
 10
114.835332
 20
-68.481608
 30
0.0
 10
114.571940
 20
-67.845723
 30
0.0
 10
114.103099
 20
-67.376881
 30
0.0
  0
SPLINE
  5
119
100
AcDbEntity
  8
0
 62
7
100
AcDbSpline
 70
8
 71
3
 72
8
 73
4
 74
0
 40
0
 40
0
 40
0
 40
0
 40
1
 40
1
 40
1
 40
1
 10
114.103099
 20
-67.376881
 30
0.0
 10
113.634257
 20
-66.908040
 30
0.0
 10
112.998372
 20
-66.644648
 30
0.0
 10
112.335330
 20
-66.644648
 30
0.0
  0
LWPOLYLINE
  5
11a
100
AcDbEntity
  8
0
 62
7
100
AcDbPolyline
 90
1
 70
1
 10
127.524866
 20
-114.071287
 30
0.0
  0
SPLINE
  5
11b
100
AcDbEntity
  8
0
 62
7
100
AcDbSpline
 70
8
 71
3
 72
8
 73
4
 74
0
 40
0
 40
0
 40
0
 40
0
 40
1
 40
1
 40
1
 40
1
 10
94.335312
 20
-99.457177
 30
0.0
 10
93.324155
 20
-99.457177
 30
0.0
 10
92.412564
 20
-100.066283
 30
0.0
 10
92.025611
 20
-101.000470
 30
0.0
  0
SPLINE
  5
11c
100
AcDbEntity
  8
0
 62
7
100
AcDbSpline
 70
8
 71
3
 72
8
 73
4
 74
0
 40
0
 40
0
 40
0
 40
0
 40
1
 40
1
 40
1
 40
1
 10
92.025611
 20
-101.000470
 30
0.0
 10
91.638658
 20
-101.934657
 30
0.0
 10
91.852548
 20
-103.009952
 30
0.0
 10
92.567543
 20
-103.724948
 30
0.0
  0
SPLINE
  5
11d
100
AcDbEntity
  8
0
 62
7
100
AcDbSpline
 70
8
 71
3
 72
8
 73
4
 74
0
 40
0
 40
0
 40
0
 40
0
 40
1
 40
1
 40
1
 40
1
 10
92.567543
 20
-103.724948
 30
0.0
 10
93.282539
 20
-104.439944
 30
0.0
 10
94.357834
 20
-104.653833
 30
0.0
 10
95.292021
 20
-104.266880
 30
0.0
  0
SPLINE
  5
11e
100
AcDbEntity
  8
0
 62
7
100
AcDbSpline
 70
8
 71
3
 72
8
 73
4
 74
0
 40
0
 40
0
 40
0
 40
0
 40
1
 40
1
 40
1
 40
1
 10
95.292021
 20
-104.266880
 30
0.0
 10
96.226208
 20
-103.879928
 30
0.0
 10
96.835314
 20
-102.968336
 30
0.0
 10
96.835314
 20
-101.957179
 30
0.0
  0
SPLINE
  5
11f
100
AcDbEntity
  8
0
 62
7
100
AcDbSpline
 70
8
 71
3
 72
8
 73
4
 74
0
 40
0
 40
0
 40
0
 40
0
 40
1
 40
1
 40
1
 40
1
 10
96.835314
 20
-101.957179
 30
0.0
 10
96.835314
 20
-101.294138
 30
0.0
 10
96.571922
 20
-100.658252
 30
0.0
 10
96.103080
 20
-100.189411
 30
0.0
  0
SPLINE
  5
120
100
AcDbEntity
  8
0
 62
7
100
AcDbSpline
 70
8
 71
3
 72
8
 73
4
 74
0
 40
0
 40
0
 40
0
 40
0
 40
1
 40
1
 40
1
 40
1
 10
96.103080
 20
-100.189411
 30
0.0
 10
95.634239
 20
-99.720569
 30
0.0
 10
94.998354
 20
-99.457177
 30
0.0
 10
94.335312
 20
-99.457177
 30
0.0
  0
LWPOLYLINE
  5
121
100
AcDbEntity
  8
0
 62
7
100
AcDbPolyline
 90
1
 70
1
 10
112.335330
 20
-66.644648
 30
0.0
  0
SPLINE
  5
122
100
AcDbEntity
  8
0
 62
7
100
AcDbSpline
 70
8
 71
3
 72
8
 73
4
 74
0
 40
0
 40
0
 40
0
 40
0
 40
1
 40
1
 40
1
 40
1
 10
58.330277
 20
-86.950170
 30
0.0
 10
57.319120
 20
-86.950170
 30
0.0
 10
56.407528
 20
-87.559276
 30
0.0
 10
56.020576
 20
-88.493463
 30
0.0
  0
SPLINE
  5
123
100
AcDbEntity
  8
0
 62
7
100
AcDbSpline
 70
8
 71
3
 72
8
 73
4
 74
0
 40
0
 40
0
 40
0
 40
0
 40
1
 40
1
 40
1
 40
1
 10
56.020576
 20
-88.493463
 30
0.0
 10
55.633623
 20
-89.427650
 30
0.0
 10
55.847512
 20
-90.502945
 30
0.0
 10
56.562508
 20
-91.217941
 30
0.0
  0
SPLINE
  5
124
100
AcDbEntity
  8
0
 62
7
100
AcDbSpline
 70
8
 71
3
 72
8
 73
4
 74
0
 40
0
 40
0
 40
0
 40
0
 40
1
 40
1
 40
1
 40
1
 10
56.562508
 20
-91.217941
 30
0.0
 10
57.277504
 20
-91.932937
 30
0.0
 10
58.352799
 20
-92.146826
 30
0.0
 10
59.286986
 20
-91.759873
 30
0.0
  0
SPLINE
  5
125
100
AcDbEntity
  8
0
 62
7
100
AcDbSpline
 70
8
 71
3
 72
8
 73
4
 74
0
 40
0
 40
0
 40
0
 40
0
 40
1
 40
1
 40
1
 40
1
 10
59.286986
 20
-91.759873
 30
0.0
 10
60.221173
 20
-91.372921
 30
0.0
 10
60.830279
 20
-90.461329
 30
0.0
 10
60.830279
 20
-89.450172
 30
0.0
  0
SPLINE
  5
126
100
AcDbEntity
  8
0
 62
7
100
AcDbSpline
 70
8
 71
3
 72
8
 73
4
 74
0
 40
0
 40
0
 40
0
 40
0
 40
1
 40
1
 40
1
 40
1
 10
60.830279
 20
-89.450172
 30
0.0
 10
60.830279
 20
-88.787131
 30
0.0
 10
60.566887
 20
-88.151245
 30
0.0
 10
60.098045
 20
-87.682404
 30
0.0
  0
SPLINE
  5
127
100
AcDbEntity
  8
0
 62
7
100
AcDbSpline
 70
8
 71
3
 72
8
 73
4
 74
0
 40
0
 40
0
 40
0
 40
0
 40
1
 40
1
 40
1
 40
1
 10
60.098045
 20
-87.682404
 30
0.0
 10
59.629204
 20
-87.213562
 30
0.0
 10
58.993318
 20
-86.950170
 30
0.0
 10
58.330277
 20
-86.950170
 30
0.0
  0
LWPOLYLINE
  5
128
100
AcDbEntity
  8
0
 62
7
100
AcDbPolyline
 90
1
 70
1
 10
94.335312
 20
-99.457177
 30
0.0
  0
SPLINE
  5
129
100
AcDbEntity
  8
0
 62
7
100
AcDbSpline
 70
8
 71
3
 72
8
 73
4
 74
0
 40
0
 40
0
 40
0
 40
0
 40
1
 40
1
 40
1
 40
1
 10
58.330278
 20
-69.940159
 30
0.0
 10
57.319121
 20
-69.940159
 30
0.0
 10
56.407529
 20
-70.549265
 30
0.0
 10
56.020577
 20
-71.483452
 30
0.0
  0
SPLINE
  5
12a
100
AcDbEntity
  8
0
 62
7
100
AcDbSpline
 70
8
 71
3
 72
8
 73
4
 74
0
 40
0
 40
0
 40
0
 40
0
 40
1
 40
1
 40
1
 40
1
 10
56.020577
 20
-71.483452
 30
0.0
 10
55.633624
 20
-72.417639
 30
0.0
 10
55.847513
 20
-73.492934
 30
0.0
 10
56.562509
 20
-74.207930
 30
0.0
  0
SPLINE
  5
12b
100
AcDbEntity
  8
0
 62
7
100
AcDbSpline
 70
8
 71
3
 72
8
 73
4
 74
0
 40
0
 40
0
 40
0
 40
0
 40
1
 40
1
 40
1
 40
1
 10
56.562509
 20
-74.207930
 30
0.0
 10
57.277505
 20
-74.922926
 30
0.0
 10
58.352800
 20
-75.136815
 30
0.0
 10
59.286987
 20
-74.749862
 30
0.0
  0
SPLINE
  5
12c
100
AcDbEntity
  8
0
 62
7
100
AcDbSpline
 70
8
 71
3
 72
8
 73
4
 74
0
 40
0
 40
0
 40
0
 40
0
 40
1
 40
1
 40
1
 40
1
 10
59.286987
 20
-74.749862
 30
0.0
 10
60.221174
 20
-74.362909
 30
0.0
 10
60.830280
 20
-73.451318
 30
0.0
 10
60.830280
 20
-72.440161
 30
0.0
  0
SPLINE
  5
12d
100
AcDbEntity
  8
0
 62
7
100
AcDbSpline
 70
8
 71
3
 72
8
 73
4
 74
0
 40
0
 40
0
 40
0
 40
0
 40
1
 40
1
 40
1
 40
1
 10
60.830280
 20
-72.440161
 30
0.0
 10
60.830280
 20
-71.777119
 30
0.0
 10
60.566888
 20
-71.141234
 30
0.0
 10
60.098046
 20
-70.672393
 30
0.0
  0
SPLINE
  5
12e
100
AcDbEntity
  8
0
 62
7
100
AcDbSpline
 70
8
 71
3
 72
8
 73
4
 74
0
 40
0
 40
0
 40
0
 40
0
 40
1
 40
1
 40
1
 40
1
 10
60.098046
 20
-70.672393
 30
0.0
 10
59.629205
 20
-70.203551
 30
0.0
 10
58.993319
 20
-69.940159
 30
0.0
 10
58.330278
 20
-69.940159
 30
0.0
  0
LWPOLYLINE
  5
12f
100
AcDbEntity
  8
0
 62
7
100
AcDbPolyline
 90
1
 70
1
 10
58.330277
 20
-86.950170
 30
0.0
  0
LWPOLYLINE
  5
130
100
AcDbEntity
  8
0
 62
7
100
AcDbPolyline
 90
1
 70
1
 10
58.330278
 20
-69.940159
 30
0.0
  0
LWPOLYLINE
  5
131
100
AcDbEntity
  8
0
 62
7
100
AcDbPolyline
 90
2
 70
0
 10
56.235274
 20
-57.057143
 30
0.0
 10
56.235274
 20
-70.857156
 30
0.0
  0
LWPOLYLINE
  5
132
100
AcDbEntity
  8
0
 62
7
100
AcDbPolyline
 90
2
 70
0
 10
42.435260
 20
-70.857156
 30
0.0
 10
56.235274
 20
-70.857156
 30
0.0
  0
LWPOLYLINE
  5
133
100
AcDbEntity
  8
0
 62
7
100
AcDbPolyline
 90
2
 70
0
 10
56.235274
 20
-57.057143
 30
0.0
 10
42.435260
 20
-57.057143
 30
0.0
  0
LWPOLYLINE
  5
134
100
AcDbEntity
  8
0
 62
7
100
AcDbPolyline
 90
2
 70
0
 10
42.435260
 20
-70.857156
 30
0.0
 10
42.435260
 20
-57.057143
 30
0.0
  0
LWPOLYLINE
  5
135
100
AcDbEntity
  8
0
 62
7
100
AcDbPolyline
 90
2
 70
0
 10
74.235291
 20
-52.557138
 30
0.0
 10
60.435278
 20
-52.557138
 30
0.0
  0
LWPOLYLINE
  5
136
100
AcDbEntity
  8
0
 62
7
100
AcDbPolyline
 90
2
 70
0
 10
60.435278
 20
-66.357151
 30
0.0
 10
60.435278
 20
-52.557138
 30
0.0
  0
LWPOLYLINE
  5
137
100
AcDbEntity
  8
0
 62
7
100
AcDbPolyline
 90
2
 70
0
 10
74.235291
 20
-52.557138
 30
0.0
 10
74.235291
 20
-66.357151
 30
0.0
  0
LWPOLYLINE
  5
138
100
AcDbEntity
  8
0
 62
7
100
AcDbPolyline
 90
2
 70
0
 10
60.435278
 20
-66.357151
 30
0.0
 10
74.235291
 20
-66.357151
 30
0.0
  0
LWPOLYLINE
  5
139
100
AcDbEntity
  8
0
 62
7
100
AcDbPolyline
 90
2
 70
0
 10
78.435301
 20
-63.982147
 30
0.0
 10
92.235314
 20
-63.982147
 30
0.0
  0
LWPOLYLINE
  5
13a
100
AcDbEntity
  8
0
 62
7
100
AcDbPolyline
 90
2
 70
0
 10
78.435301
 20
-63.982147
 30
0.0
 10
78.435301
 20
-50.182134
 30
0.0
  0
LWPOLYLINE
  5
13b
100
AcDbEntity
  8
0
 62
7
100
AcDbPolyline
 90
2
 70
0
 10
92.235314
 20
-50.182134
 30
0.0
 10
92.235314
 20
-63.982147
 30
0.0
  0
LWPOLYLINE
  5
13c
100
AcDbEntity
  8
0
 62
7
100
AcDbPolyline
 90
2
 70
0
 10
92.235314
 20
-50.182134
 30
0.0
 10
78.435301
 20
-50.182134
 30
0.0
  0
LWPOLYLINE
  5
13d
100
AcDbEntity
  8
0
 62
7
100
AcDbPolyline
 90
2
 70
0
 10
96.435316
 20
-66.357152
 30
0.0
 10
110.235329
 20
-66.357152
 30
0.0
  0
LWPOLYLINE
  5
13e
100
AcDbEntity
  8
0
 62
7
100
AcDbPolyline
 90
2
 70
0
 10
110.235329
 20
-52.557139
 30
0.0
 10
110.235329
 20
-66.357152
 30
0.0
  0
LWPOLYLINE
  5
13f
100
AcDbEntity
  8
0
 62
7
100
AcDbPolyline
 90
2
 70
0
 10
96.435316
 20
-66.357152
 30
0.0
 10
96.435316
 20
-52.557139
 30
0.0
  0
LWPOLYLINE
  5
140
100
AcDbEntity
  8
0
 62
7
100
AcDbPolyline
 90
2
 70
0
 10
110.235329
 20
-52.557139
 30
0.0
 10
96.435316
 20
-52.557139
 30
0.0
  0
LWPOLYLINE
  5
141
100
AcDbEntity
  8
0
 62
7
100
AcDbPolyline
 90
2
 70
0
 10
128.235343
 20
-54.932132
 30
0.0
 10
128.235343
 20
-68.732145
 30
0.0
  0
LWPOLYLINE
  5
142
100
AcDbEntity
  8
0
 62
7
100
AcDbPolyline
 90
2
 70
0
 10
114.435330
 20
-68.732145
 30
0.0
 10
114.435330
 20
-54.932132
 30
0.0
  0
LWPOLYLINE
  5
143
100
AcDbEntity
  8
0
 62
7
100
AcDbPolyline
 90
2
 70
0
 10
128.235343
 20
-54.932132
 30
0.0
 10
114.435330
 20
-54.932132
 30
0.0
  0
LWPOLYLINE
  5
144
100
AcDbEntity
  8
0
 62
7
100
AcDbPolyline
 90
2
 70
0
 10
114.435330
 20
-68.732145
 30
0.0
 10
128.235343
 20
-68.732145
 30
0.0
  0
LWPOLYLINE
  5
145
100
AcDbEntity
  8
0
 62
7
100
AcDbPolyline
 90
2
 70
0
 10
42.435263
 20
-87.857165
 30
0.0
 10
56.235277
 20
-87.857165
 30
0.0
  0
LWPOLYLINE
  5
146
100
AcDbEntity
  8
0
 62
7
100
AcDbPolyline
 90
2
 70
0
 10
42.435263
 20
-87.857165
 30
0.0
 10
42.435263
 20
-74.057152
 30
0.0
  0
LWPOLYLINE
  5
147
100
AcDbEntity
  8
0
 62
7
100
AcDbPolyline
 90
2
 70
0
 10
56.235277
 20
-74.057152
 30
0.0
 10
42.435263
 20
-74.057152
 30
0.0
  0
LWPOLYLINE
  5
148
100
AcDbEntity
  8
0
 62
7
100
AcDbPolyline
 90
2
 70
0
 10
56.235277
 20
-74.057152
 30
0.0
 10
56.235277
 20
-87.857165
 30
0.0
  0
LWPOLYLINE
  5
149
100
AcDbEntity
  8
0
 62
7
100
AcDbPolyline
 90
2
 70
0
 10
60.435280
 20
-83.357167
 30
0.0
 10
60.435280
 20
-69.557154
 30
0.0
  0
LWPOLYLINE
  5
14a
100
AcDbEntity
  8
0
 62
7
100
AcDbPolyline
 90
2
 70
0
 10
74.235293
 20
-69.557154
 30
0.0
 10
60.435280
 20
-69.557154
 30
0.0
  0
LWPOLYLINE
  5
14b
100
AcDbEntity
  8
0
 62
7
100
AcDbPolyline
 90
2
 70
0
 10
74.235293
 20
-69.557154
 30
0.0
 10
74.235293
 20
-83.357167
 30
0.0
  0
LWPOLYLINE
  5
14c
100
AcDbEntity
  8
0
 62
7
100
AcDbPolyline
 90
2
 70
0
 10
60.435280
 20
-83.357167
 30
0.0
 10
74.235293
 20
-83.357167
 30
0.0
  0
LWPOLYLINE
  5
14d
100
AcDbEntity
  8
0
 62
7
100
AcDbPolyline
 90
2
 70
0
 10
110.235324
 20
-69.557155
 30
0.0
 10
96.435311
 20
-69.557155
 30
0.0
  0
LWPOLYLINE
  5
14e
100
AcDbEntity
  8
0
 62
7
100
AcDbPolyline
 90
2
 70
0
 10
96.435311
 20
-83.357168
 30
0.0
 10
96.435311
 20
-69.557155
 30
0.0
  0
LWPOLYLINE
  5
14f
100
AcDbEntity
  8
0
 62
7
100
AcDbPolyline
 90
2
 70
0
 10
96.435311
 20
-83.357168
 30
0.0
 10
110.235324
 20
-83.357168
 30
0.0
  0
LWPOLYLINE
  5
150
100
AcDbEntity
  8
0
 62
7
100
AcDbPolyline
 90
2
 70
0
 10
110.235324
 20
-69.557155
 30
0.0
 10
110.235324
 20
-83.357168
 30
0.0
  0
LWPOLYLINE
  5
151
100
AcDbEntity
  8
0
 62
7
100
AcDbPolyline
 90
2
 70
0
 10
114.435330
 20
-85.732170
 30
0.0
 10
114.435330
 20
-71.932157
 30
0.0
  0
LWPOLYLINE
  5
152
100
AcDbEntity
  8
0
 62
7
100
AcDbPolyline
 90
2
 70
0
 10
114.435330
 20
-85.732170
 30
0.0
 10
128.235343
 20
-85.732170
 30
0.0
  0
LWPOLYLINE
  5
153
100
AcDbEntity
  8
0
 62
7
100
AcDbPolyline
 90
2
 70
0
 10
128.235343
 20
-71.932157
 30
0.0
 10
128.235343
 20
-85.732170
 30
0.0
  0
LWPOLYLINE
  5
154
100
AcDbEntity
  8
0
 62
7
100
AcDbPolyline
 90
2
 70
0
 10
128.235343
 20
-71.932157
 30
0.0
 10
114.435330
 20
-71.932157
 30
0.0
  0
LWPOLYLINE
  5
155
100
AcDbEntity
  8
0
 62
7
100
AcDbPolyline
 90
2
 70
0
 10
42.435260
 20
-104.857186
 30
0.0
 10
42.435260
 20
-91.057173
 30
0.0
  0
LWPOLYLINE
  5
156
100
AcDbEntity
  8
0
 62
7
100
AcDbPolyline
 90
2
 70
0
 10
56.235274
 20
-91.057173
 30
0.0
 10
42.435260
 20
-91.057173
 30
0.0
  0
LWPOLYLINE
  5
157
100
AcDbEntity
  8
0
 62
7
100
AcDbPolyline
 90
2
 70
0
 10
56.235274
 20
-91.057173
 30
0.0
 10
56.235274
 20
-104.857186
 30
0.0
  0
LWPOLYLINE
  5
158
100
AcDbEntity
  8
0
 62
7
100
AcDbPolyline
 90
2
 70
0
 10
42.435260
 20
-104.857186
 30
0.0
 10
56.235274
 20
-104.857186
 30
0.0
  0
LWPOLYLINE
  5
159
100
AcDbEntity
  8
0
 62
7
100
AcDbPolyline
 90
2
 70
0
 10
60.435281
 20
-100.357183
 30
0.0
 10
74.235294
 20
-100.357183
 30
0.0
  0
LWPOLYLINE
  5
15a
100
AcDbEntity
  8
0
 62
7
100
AcDbPolyline
 90
2
 70
0
 10
74.235294
 20
-86.557170
 30
0.0
 10
60.435281
 20
-86.557170
 30
0.0
  0
LWPOLYLINE
  5
15b
100
AcDbEntity
  8
0
 62
7
100
AcDbPolyline
 90
2
 70
0
 10
74.235294
 20
-86.557170
 30
0.0
 10
74.235294
 20
-100.357183
 30
0.0
  0
LWPOLYLINE
  5
15c
100
AcDbEntity
  8
0
 62
7
100
AcDbPolyline
 90
2
 70
0
 10
60.435281
 20
-100.357183
 30
0.0
 10
60.435281
 20
-86.557170
 30
0.0
  0
LWPOLYLINE
  5
15d
100
AcDbEntity
  8
0
 62
7
100
AcDbPolyline
 90
2
 70
0
 10
78.435299
 20
-97.982180
 30
0.0
 10
92.235312
 20
-97.982180
 30
0.0
  0
LWPOLYLINE
  5
15e
100
AcDbEntity
  8
0
 62
7
100
AcDbPolyline
 90
2
 70
0
 10
92.235312
 20
-84.182166
 30
0.0
 10
78.435299
 20
-84.182166
 30
0.0
  0
LWPOLYLINE
  5
15f
100
AcDbEntity
  8
0
 62
7
100
AcDbPolyline
 90
2
 70
0
 10
78.435299
 20
-97.982180
 30
0.0
 10
78.435299
 20
-84.182166
 30
0.0
  0
LWPOLYLINE
  5
160
100
AcDbEntity
  8
0
 62
7
100
AcDbPolyline
 90
2
 70
0
 10
92.235312
 20
-84.182166
 30
0.0
 10
92.235312
 20
-97.982180
 30
0.0
  0
LWPOLYLINE
  5
161
100
AcDbEntity
  8
0
 62
7
100
AcDbPolyline
 90
2
 70
0
 10
110.235324
 20
-86.557170
 30
0.0
 10
96.435311
 20
-86.557170
 30
0.0
  0
LWPOLYLINE
  5
162
100
AcDbEntity
  8
0
 62
7
100
AcDbPolyline
 90
2
 70
0
 10
96.435311
 20
-100.357183
 30
0.0
 10
96.435311
 20
-86.557170
 30
0.0
  0
LWPOLYLINE
  5
163
100
AcDbEntity
  8
0
 62
7
100
AcDbPolyline
 90
2
 70
0
 10
96.435311
 20
-100.357183
 30
0.0
 10
110.235324
 20
-100.357183
 30
0.0
  0
LWPOLYLINE
  5
164
100
AcDbEntity
  8
0
 62
7
100
AcDbPolyline
 90
2
 70
0
 10
110.235324
 20
-86.557170
 30
0.0
 10
110.235324
 20
-100.357183
 30
0.0
  0
LWPOLYLINE
  5
165
100
AcDbEntity
  8
0
 62
7
100
AcDbPolyline
 90
2
 70
0
 10
128.235344
 20
-88.932169
 30
0.0
 10
128.235344
 20
-102.732182
 30
0.0
  0
LWPOLYLINE
  5
166
100
AcDbEntity
  8
0
 62
7
100
AcDbPolyline
 90
2
 70
0
 10
114.435331
 20
-102.732182
 30
0.0
 10
114.435331
 20
-88.932169
 30
0.0
  0
LWPOLYLINE
  5
167
100
AcDbEntity
  8
0
 62
7
100
AcDbPolyline
 90
2
 70
0
 10
114.435331
 20
-102.732182
 30
0.0
 10
128.235344
 20
-102.732182
 30
0.0
  0
LWPOLYLINE
  5
168
100
AcDbEntity
  8
0
 62
7
100
AcDbPolyline
 90
2
 70
0
 10
128.235344
 20
-88.932169
 30
0.0
 10
114.435331
 20
-88.932169
 30
0.0
  0
LWPOLYLINE
  5
169
100
AcDbEntity
  8
0
 62
7
100
AcDbPolyline
 90
2
 70
0
 10
91.648308
 20
-119.732199
 30
0.0
 10
105.448321
 20
-119.732199
 30
0.0
  0
LWPOLYLINE
  5
16a
100
AcDbEntity
  8
0
 62
7
100
AcDbPolyline
 90
2
 70
0
 10
91.648308
 20
-119.732199
 30
0.0
 10
91.648308
 20
-105.932186
 30
0.0
  0
LWPOLYLINE
  5
16b
100
AcDbEntity
  8
0
 62
7
100
AcDbPolyline
 90
2
 70
0
 10
105.448321
 20
-105.932186
 30
0.0
 10
105.448321
 20
-119.732199
 30
0.0
  0
LWPOLYLINE
  5
16c
100
AcDbEntity
  8
0
 62
7
100
AcDbPolyline
 90
2
 70
0
 10
105.448321
 20
-105.932186
 30
0.0
 10
91.648308
 20
-105.932186
 30
0.0
  0
LWPOLYLINE
  5
16d
100
AcDbEntity
  8
0
 62
7
100
AcDbPolyline
 90
2
 70
0
 10
126.958405
 20
-110.569844
 30
0.0
 10
123.386699
 20
-123.899633
 30
0.0
  0
LWPOLYLINE
  5
16e
100
AcDbEntity
  8
0
 62
7
100
AcDbPolyline
 90
2
 70
0
 10
110.056909
 20
-120.327927
 30
0.0
 10
113.628615
 20
-106.998137
 30
0.0
  0
LWPOLYLINE
  5
16f
100
AcDbEntity
  8
0
 62
7
100
AcDbPolyline
 90
2
 70
0
 10
110.056909
 20
-120.327927
 30
0.0
 10
123.386699
 20
-123.899633
 30
0.0
  0
LWPOLYLINE
  5
170
100
AcDbEntity
  8
0
 62
7
100
AcDbPolyline
 90
2
 70
0
 10
126.958405
 20
-110.569844
 30
0.0
 10
113.628615
 20
-106.998137
 30
0.0
  0
LWPOLYLINE
  5
171
100
AcDbEntity
  8
0
 62
7
100
AcDbPolyline
 90
2
 70
0
 10
146.497391
 20
-120.605383
 30
0.0
 10
139.597384
 20
-132.556545
 30
0.0
  0
LWPOLYLINE
  5
172
100
AcDbEntity
  8
0
 62
7
100
AcDbPolyline
 90
2
 70
0
 10
127.646223
 20
-125.656538
 30
0.0
 10
139.597384
 20
-132.556545
 30
0.0
  0
LWPOLYLINE
  5
173
100
AcDbEntity
  8
0
 62
7
100
AcDbPolyline
 90
2
 70
0
 10
146.497391
 20
-120.605383
 30
0.0
 10
134.546229
 20
-113.705377
 30
0.0
  0
LWPOLYLINE
  5
174
100
AcDbEntity
  8
0
 62
7
100
AcDbPolyline
 90
2
 70
0
 10
127.646223
 20
-125.656538
 30
0.0
 10
134.546229
 20
-113.705377
 30
0.0
  0
LWPOLYLINE
  5
175
100
AcDbEntity
  8
0
 62
7
100
AcDbPolyline
 90
2
 70
0
 10
92.235311
 20
-67.182149
 30
0.0
 10
78.435298
 20
-67.182149
 30
0.0
  0
LWPOLYLINE
  5
176
100
AcDbEntity
  8
0
 62
7
100
AcDbPolyline
 90
2
 70
0
 10
78.435298
 20
-80.982162
 30
0.0
 10
92.235311
 20
-80.982162
 30
0.0
  0
LWPOLYLINE
  5
177
100
AcDbEntity
  8
0
 62
7
100
AcDbPolyline
 90
2
 70
0
 10
92.235311
 20
-67.182149
 30
0.0
 10
92.235311
 20
-80.982162
 30
0.0
  0
SPLINE
  5
178
100
AcDbEntity
  8
0
 62
7
100
AcDbSpline
 70
8
 71
3
 72
8
 73
4
 74
0
 40
0
 40
0
 40
0
 40
0
 40
1
 40
1
 40
1
 40
1
 10
130.166530
 20
-52.986939
 30
0.0
 10
100.686093
 20
-45.093517
 30
0.0
 10
69.558896
 20
-45.832823
 30
0.0
 10
40.486444
 20
-55.116942
 30
0.0
  0
LWPOLYLINE
  5
179
100
AcDbEntity
  8
0
 62
7
100
AcDbPolyline
 90
2
 70
0
 10
78.435298
 20
-80.982162
 30
0.0
 10
78.435298
 20
-67.182149
 30
0.0
  0
LWPOLYLINE
  5
17a
100
AcDbEntity
  8
0
 62
7
100
AcDbPolyline
 90
2
 70
0
 10
89.923235
 20
-121.706976
 30
0.0
 10
98.548245
 20
-121.706975
 30
0.0
  0
LWPOLYLINE
  5
17b
100
AcDbEntity
  8
0
 62
7
100
AcDbPolyline
 90
2
 70
0
 10
149.491076
 20
-64.149863
 30
0.0
 10
149.491700
 20
-119.892102
 30
0.0
  0
SPLINE
  5
17c
100
AcDbEntity
  8
0
 62
7
100
AcDbSpline
 70
8
 71
3
 72
8
 73
4
 74
0
 40
0
 40
0
 40
0
 40
0
 40
1
 40
1
 40
1
 40
1
 10
39.960765
 20
-106.081977
 30
0.0
 10
39.960757
 20
-106.280883
 30
0.0
 10
40.039765
 20
-106.471645
 30
0.0
 10
40.180407
 20
-106.612298
 30
0.0
  0
SPLINE
  5
17d
100
AcDbEntity
  8
0
 62
7
100
AcDbSpline
 70
8
 71
3
 72
8
 73
4
 74
0
 40
0
 40
0
 40
0
 40
0
 40
1
 40
1
 40
1
 40
1
 10
40.180407
 20
-106.612298
 30
0.0
 10
40.321049
 20
-106.752951
 30
0.0
 10
40.511805
 20
-106.831974
 30
0.0
 10
40.710711
 20
-106.831981
 30
0.0
  0
SPLINE
  5
17e
100
AcDbEntity
  8
0
 62
7
100
AcDbSpline
 70
8
 71
3
 72
8
 73
4
 74
0
 40
0
 40
0
 40
0
 40
0
 40
1
 40
1
 40
1
 40
1
 10
89.340995
 20
-121.428941
 30
0.0
 10
89.483122
 20
-121.604799
 30
0.0
 10
89.697124
 20
-121.706991
 30
0.0
 10
89.923235
 20
-121.706976
 30
0.0
  0
SPLINE
  5
17f
100
AcDbEntity
  8
0
 62
7
100
AcDbSpline
 70
8
 71
3
 72
8
 73
4
 74
0
 40
0
 40
0
 40
0
 40
0
 40
1
 40
1
 40
1
 40
1
 10
140.103320
 20
-135.129304
 30
0.0
 10
140.275574
 20
-135.228766
 30
0.0
 10
140.480286
 20
-135.255725
 30
0.0
 10
140.672417
 20
-135.204249
 30
0.0
  0
SPLINE
  5
180
100
AcDbEntity
  8
0
 62
7
100
AcDbSpline
 70
8
 71
3
 72
8
 73
4
 74
0
 40
0
 40
0
 40
0
 40
0
 40
1
 40
1
 40
1
 40
1
 10
140.672417
 20
-135.204249
 30
0.0
 10
140.864549
 20
-135.152774
 30
0.0
 10
141.028362
 20
-135.027081
 30
0.0
 10
141.127818
 20
-134.854823
 30
0.0
  0
SPLINE
  5
181
100
AcDbEntity
  8
0
 62
7
100
AcDbSpline
 70
8
 71
3
 72
8
 73
4
 74
0
 40
0
 40
0
 40
0
 40
0
 40
1
 40
1
 40
1
 40
1
 10
149.491090
 20
-64.149863
 30
0.0
 10
149.491116
 20
-63.619408
 30
0.0
 10
149.280414
 20
-63.110670
 30
0.0
 10
148.905339
 20
-62.735568
 30
0.0
  0
SPLINE
  5
182
100
AcDbEntity
  8
0
 62
7
100
AcDbSpline
 70
8
 71
3
 72
8
 73
4
 74
0
 40
0
 40
0
 40
0
 40
0
 40
1
 40
1
 40
1
 40
1
 10
148.905339
 20
-62.735568
 30
0.0
 10
148.530263
 20
-62.360466
 30
0.0
 10
148.021540
 20
-62.149729
 30
0.0
 10
147.491084
 20
-62.149717
 30
0.0
  0
SPLINE
  5
183
100
AcDbEntity
  8
0
 62
7
100
AcDbSpline
 70
8
 71
3
 72
8
 73
4
 74
0
 40
0
 40
0
 40
0
 40
0
 40
1
 40
1
 40
1
 40
1
 10
149.252775
 20
-120.782002
 30
0.0
 10
149.408996
 20
-120.511420
 30
0.0
 10
149.491388
 20
-120.204544
 30
0.0
 10
149.491700
 20
-119.892102
 30
0.0
  0
SPLINE
  5
184
100
AcDbEntity
  8
0
 62
7
100
AcDbSpline
 70
8
 71
3
 72
8
 73
4
 74
0
 40
0
 40
0
 40
0
 40
0
 40
1
 40
1
 40
1
 40
1
 10
130.709839
 20
-61.650350
 30
0.0
 10
130.709831
 20
-61.926482
 30
0.0
 10
130.933672
 20
-62.150339
 30
0.0
 10
131.209804
 20
-62.150350
 30
0.0
  0
LWPOLYLINE
  5
185
100
AcDbEntity
  8
0
 62
7
100
AcDbPolyline
 90
2
 70
0
 10
132.634495
 20
-130.817227
 30
0.0
 10
140.103297
 20
-135.129340
 30
0.0
  0
LWPOLYLINE
  5
186
100
AcDbEntity
  8
0
 62
7
100
AcDbPolyline
 90
2
 70
0
 10
58.335256
 20
-106.831982
 30
0.0
 10
40.710711
 20
-106.831981
 30
0.0
  0
SPLINE
  5
187
100
AcDbEntity
  8
0
 62
7
100
AcDbSpline
 70
8
 71
3
 72
8
 73
4
 74
0
 40
0
 40
0
 40
0
 40
0
 40
1
 40
1
 40
1
 40
1
 10
132.634495
 20
-130.817227
 30
0.0
 10
122.264915
 20
-124.851146
 30
0.0
 10
110.511618
 20
-121.709836
 30
0.0
 10
98.548245
 20
-121.706975
 30
0.0
  0
SPLINE
  5
188
100
AcDbEntity
  8
0
 62
7
100
AcDbSpline
 70
8
 71
3
 72
8
 73
4
 74
0
 40
0
 40
0
 40
0
 40
0
 40
1
 40
1
 40
1
 40
1
 10
130.710158
 20
-53.706908
 30
0.0
 10
130.710137
 20
-53.372422
 30
0.0
 10
130.488231
 20
-53.078535
 30
0.0
 10
130.166530
 20
-52.986939
 30
0.0
  0
LWPOLYLINE
  5
189
100
AcDbEntity
  8
0
 62
7
100
AcDbPolyline
 90
2
 70
0
 10
141.127817
 20
-134.854823
 30
0.0
 10
149.252768
 20
-120.781998
 30
0.0
  0
SPLINE
  5
18a
100
AcDbEntity
  8
0
 62
7
100
AcDbSpline
 70
8
 71
3
 72
8
 73
4
 74
0
 40
0
 40
0
 40
0
 40
0
 40
1
 40
1
 40
1
 40
1
 10
89.341025
 20
-121.428917
 30
0.0
 10
81.699782
 20
-112.182852
 30
0.0
 10
70.330183
 20
-106.830258
 30
0.0
 10
58.335256
 20
-106.831982
 30
0.0
  0
SPLINE
  5
18b
100
AcDbEntity
  8
0
 62
7
100
AcDbSpline
 70
8
 71
3
 72
8
 73
4
 74
0
 40
0
 40
0
 40
0
 40
0
 40
1
 40
1
 40
1
 40
1
 10
40.486460
 20
-55.116991
 30
0.0
 10
40.173691
 20
-55.214934
 30
0.0
 10
39.960773
 20
-55.504661
 30
0.0
 10
39.960706
 20
-55.832406
 30
0.0
  0
LWPOLYLINE
  5
18c
100
AcDbEntity
  8
0
 62
7
100
AcDbPolyline
 90
2
 70
0
 10
130.710174
 20
-53.706908
 30
0.0
 10
130.709802
 20
-61.650350
 30
0.0
  0
LWPOLYLINE
  5
18d
100
AcDbEntity
  8
0
 62
7
100
AcDbPolyline
 90
2
 70
0
 10
131.209804
 20
-62.150350
 30
0.0
 10
132.709743
 20
-62.150171
 30
0.0
  0
LWPOLYLINE
  5
18e
100
AcDbEntity
  8
0
 62
7
100
AcDbPolyline
 90
2
 70
0
 10
39.960709
 20
-106.081978
 30
0.0
 10
39.960706
 20
-55.832406
 30
0.0
  0
ENDSEC
  0
SECTION
  2
OBJECTS
  0
DICTIONARY
  5
C
330
0
100
AcDbDictionary
  3
ACAD_GROUP
350
D
  3
ACAD_MLINESTYLE
350
17
  0
DICTIONARY
  5
D
330
C
100
AcDbDictionary
  0
DICTIONARY
  5
1A
330
C
100
AcDbDictionary
  0
DICTIONARY
  5
17
330
C
100
AcDbDictionary
  3
STANDARD
350
18
  0
DICTIONARY
  5
19
330
C
100
AcDbDictionary
  0
ENDSEC
  0
EOF
