<?xml version="1.0" standalone="no"?>
 <!DOCTYPE svg PUBLIC "-//W3C//DTD SVG 1.1//EN" 
 "http://www.w3.org/Graphics/SVG/1.1/DTD/svg11.dtd"> 
<svg
  xmlns:svg="http://www.w3.org/2000/svg"
  xmlns="http://www.w3.org/2000/svg"
  xmlns:xlink="http://www.w3.org/1999/xlink"
  version="1.1"
  width="29.700220cm" height="21.000720cm" viewBox="0 0 297002200 210007200">
<title>SVG Picture created as chocolad-brd.svg date 2022/11/25 00:10:25 </title>
  <desc>Picture generated by PCBNEW </desc>
<g style="fill:#000000; fill-opacity:1.000000;stroke:#000000; stroke-opacity:1.000000;
stroke-linecap:round; stroke-linejoin:round;"
 transform="translate(0 0) scale(1 1)">
</g>
<g style="fill:#000000; fill-opacity:0.0; 
stroke:#000000; stroke-width:0.000000; stroke-opacity:1; 
stroke-linecap:round; stroke-linejoin:round;">
</g>
<g style="fill:#000000; fill-opacity:0.0; 
stroke:#000000; stroke-width:21200.000000; stroke-opacity:1; 
stroke-linecap:round; stroke-linejoin:round;">
</g>
<g style="fill:#000000; fill-opacity:0.0; 
stroke:#000000; stroke-width:150000.000000; stroke-opacity:1; 
stroke-linecap:round; stroke-linejoin:round;">
<rect x="177002200.000000" y="166007200.000000" width="108000000.000000" height="32000000.000000" rx="0.000000" />
</g>
<g style="fill:#000000; fill-opacity:0.0; 
stroke:#000000; stroke-width:21200.000000; stroke-opacity:1; 
stroke-linecap:round; stroke-linejoin:round;">
</g>
<g style="fill:#000000; fill-opacity:0.0; 
stroke:#000000; stroke-width:150000.000000; stroke-opacity:1; 
stroke-linecap:round; stroke-linejoin:round;">
<rect x="10000000.000000" y="10000000.000000" width="277002200.000000" height="190007200.000000" rx="0.000000" />
</g>
<g style="fill:#000000; fill-opacity:0.0; 
stroke:#000000; stroke-width:21200.000000; stroke-opacity:1; 
stroke-linecap:round; stroke-linejoin:round;">
</g>
<g style="fill:#000000; fill-opacity:0.0; 
stroke:#000000; stroke-width:150000.000000; stroke-opacity:1; 
stroke-linecap:round; stroke-linejoin:round;">
<rect x="12000000.000000" y="12000000.000000" width="273002200.000000" height="186007200.000000" rx="0.000000" />
</g>
<g style="fill:#000000; fill-opacity:0.0; 
stroke:#000000; stroke-width:21200.000000; stroke-opacity:1; 
stroke-linecap:round; stroke-linejoin:round;">
</g>
<g style="fill:#000000; fill-opacity:0.0; 
stroke:#000000; stroke-width:150000.000000; stroke-opacity:1; 
stroke-linecap:round; stroke-linejoin:round;">
<path d="M60000000 12000000
L60000000 10000000
" />
</g>
<g style="fill:#000000; fill-opacity:0.0; 
stroke:#000000; stroke-width:21200.000000; stroke-opacity:1; 
stroke-linecap:round; stroke-linejoin:round;">
</g>
<g style="fill:#000000; fill-opacity:0.0; 
stroke:#000000; stroke-width:150000.000000; stroke-opacity:1; 
stroke-linecap:round; stroke-linejoin:round;">
<path d="M110000000 12000000
L110000000 10000000
" />
</g>
<g style="fill:#000000; fill-opacity:0.0; 
stroke:#000000; stroke-width:21200.000000; stroke-opacity:1; 
stroke-linecap:round; stroke-linejoin:round;">
</g>
<g style="fill:#000000; fill-opacity:0.0; 
stroke:#000000; stroke-width:150000.000000; stroke-opacity:1; 
stroke-linecap:round; stroke-linejoin:round;">
<path d="M160000000 12000000
L160000000 10000000
" />
</g>
<g style="fill:#000000; fill-opacity:0.0; 
stroke:#000000; stroke-width:21200.000000; stroke-opacity:1; 
stroke-linecap:round; stroke-linejoin:round;">
</g>
<g style="fill:#000000; fill-opacity:0.0; 
stroke:#000000; stroke-width:150000.000000; stroke-opacity:1; 
stroke-linecap:round; stroke-linejoin:round;">
<path d="M210000000 12000000
L210000000 10000000
" />
</g>
<g style="fill:#000000; fill-opacity:0.0; 
stroke:#000000; stroke-width:21200.000000; stroke-opacity:1; 
stroke-linecap:round; stroke-linejoin:round;">
</g>
<g style="fill:#000000; fill-opacity:0.0; 
stroke:#000000; stroke-width:150000.000000; stroke-opacity:1; 
stroke-linecap:round; stroke-linejoin:round;">
<path d="M260000000 12000000
L260000000 10000000
" />
</g>
<g style="fill:#000000; fill-opacity:0.0; 
stroke:#000000; stroke-width:21200.000000; stroke-opacity:1; 
stroke-linecap:round; stroke-linejoin:round;">
</g>
<g style="fill:#000000; fill-opacity:0.0; 
stroke:#000000; stroke-width:150000.000000; stroke-opacity:1; 
stroke-linecap:round; stroke-linejoin:round;">
<text x="35000000.000000" y="11650000.000000"
textLength="1388095.000000" font-size="1733333.000000" lengthAdjust="spacingAndGlyphs"
text-anchor="start" opacity="0">1</text>
<g class="stroked-text"><desc>1</desc>
<path d="M36065476 11588095
L35322619 11588095
" />
<path d="M35694047 11588095
L35694047 10288095
L35570238 10473809
L35446428 10597619
L35322619 10659523
" />
</g></g>
<g style="fill:#000000; fill-opacity:0.0; 
stroke:#000000; stroke-width:21200.000000; stroke-opacity:1; 
stroke-linecap:round; stroke-linejoin:round;">
</g>
<g style="fill:#000000; fill-opacity:0.0; 
stroke:#000000; stroke-width:150000.000000; stroke-opacity:1; 
stroke-linecap:round; stroke-linejoin:round;">
<text x="85000000.000000" y="11650000.000000"
textLength="1388095.000000" font-size="1733333.000000" lengthAdjust="spacingAndGlyphs"
text-anchor="start" opacity="0">2</text>
<g class="stroked-text"><desc>2</desc>
<path d="M85322619 10411904
L85384523 10350000
L85508333 10288095
L85817857 10288095
L85941666 10350000
L86003571 10411904
L86065476 10535714
L86065476 10659523
L86003571 10845238
L85260714 11588095
L86065476 11588095
" />
</g></g>
<g style="fill:#000000; fill-opacity:0.0; 
stroke:#000000; stroke-width:21200.000000; stroke-opacity:1; 
stroke-linecap:round; stroke-linejoin:round;">
</g>
<g style="fill:#000000; fill-opacity:0.0; 
stroke:#000000; stroke-width:150000.000000; stroke-opacity:1; 
stroke-linecap:round; stroke-linejoin:round;">
<text x="135000000.000000" y="11650000.000000"
textLength="1388095.000000" font-size="1733333.000000" lengthAdjust="spacingAndGlyphs"
text-anchor="start" opacity="0">3</text>
<g class="stroked-text"><desc>3</desc>
<path d="M135260714 10288095
L136065476 10288095
L135632142 10783333
L135817857 10783333
L135941666 10845238
L136003571 10907142
L136065476 11030952
L136065476 11340476
L136003571 11464285
L135941666 11526190
L135817857 11588095
L135446428 11588095
L135322619 11526190
L135260714 11464285
" />
</g></g>
<g style="fill:#000000; fill-opacity:0.0; 
stroke:#000000; stroke-width:21200.000000; stroke-opacity:1; 
stroke-linecap:round; stroke-linejoin:round;">
</g>
<g style="fill:#000000; fill-opacity:0.0; 
stroke:#000000; stroke-width:150000.000000; stroke-opacity:1; 
stroke-linecap:round; stroke-linejoin:round;">
<text x="185000000.000000" y="11650000.000000"
textLength="1388095.000000" font-size="1733333.000000" lengthAdjust="spacingAndGlyphs"
text-anchor="start" opacity="0">4</text>
<g class="stroked-text"><desc>4</desc>
<path d="M185941666 10721428
L185941666 11588095
" />
<path d="M185632142 10226190
L185322619 11154761
L186127380 11154761
" />
</g></g>
<g style="fill:#000000; fill-opacity:0.0; 
stroke:#000000; stroke-width:21200.000000; stroke-opacity:1; 
stroke-linecap:round; stroke-linejoin:round;">
</g>
<g style="fill:#000000; fill-opacity:0.0; 
stroke:#000000; stroke-width:150000.000000; stroke-opacity:1; 
stroke-linecap:round; stroke-linejoin:round;">
<text x="235000000.000000" y="11650000.000000"
textLength="1388095.000000" font-size="1733333.000000" lengthAdjust="spacingAndGlyphs"
text-anchor="start" opacity="0">5</text>
<g class="stroked-text"><desc>5</desc>
<path d="M236003571 10288095
L235384523 10288095
L235322619 10907142
L235384523 10845238
L235508333 10783333
L235817857 10783333
L235941666 10845238
L236003571 10907142
L236065476 11030952
L236065476 11340476
L236003571 11464285
L235941666 11526190
L235817857 11588095
L235508333 11588095
L235384523 11526190
L235322619 11464285
" />
</g></g>
<g style="fill:#000000; fill-opacity:0.0; 
stroke:#000000; stroke-width:21200.000000; stroke-opacity:1; 
stroke-linecap:round; stroke-linejoin:round;">
</g>
<g style="fill:#000000; fill-opacity:0.0; 
stroke:#000000; stroke-width:150000.000000; stroke-opacity:1; 
stroke-linecap:round; stroke-linejoin:round;">
<text x="285000000.000000" y="11650000.000000"
textLength="1388095.000000" font-size="1733333.000000" lengthAdjust="spacingAndGlyphs"
text-anchor="start" opacity="0">6</text>
<g class="stroked-text"><desc>6</desc>
<path d="M285941666 10288095
L285694047 10288095
L285570238 10350000
L285508333 10411904
L285384523 10597619
L285322619 10845238
L285322619 11340476
L285384523 11464285
L285446428 11526190
L285570238 11588095
L285817857 11588095
L285941666 11526190
L286003571 11464285
L286065476 11340476
L286065476 11030952
L286003571 10907142
L285941666 10845238
L285817857 10783333
L285570238 10783333
L285446428 10845238
L285384523 10907142
L285322619 11030952
" />
</g></g>
<g style="fill:#000000; fill-opacity:0.0; 
stroke:#000000; stroke-width:21200.000000; stroke-opacity:1; 
stroke-linecap:round; stroke-linejoin:round;">
</g>
<g style="fill:#000000; fill-opacity:0.0; 
stroke:#000000; stroke-width:150000.000000; stroke-opacity:1; 
stroke-linecap:round; stroke-linejoin:round;">
<path d="M60000000 198007200
L60000000 200007200
" />
</g>
<g style="fill:#000000; fill-opacity:0.0; 
stroke:#000000; stroke-width:21200.000000; stroke-opacity:1; 
stroke-linecap:round; stroke-linejoin:round;">
</g>
<g style="fill:#000000; fill-opacity:0.0; 
stroke:#000000; stroke-width:150000.000000; stroke-opacity:1; 
stroke-linecap:round; stroke-linejoin:round;">
<path d="M110000000 198007200
L110000000 200007200
" />
</g>
<g style="fill:#000000; fill-opacity:0.0; 
stroke:#000000; stroke-width:21200.000000; stroke-opacity:1; 
stroke-linecap:round; stroke-linejoin:round;">
</g>
<g style="fill:#000000; fill-opacity:0.0; 
stroke:#000000; stroke-width:150000.000000; stroke-opacity:1; 
stroke-linecap:round; stroke-linejoin:round;">
<path d="M160000000 198007200
L160000000 200007200
" />
</g>
<g style="fill:#000000; fill-opacity:0.0; 
stroke:#000000; stroke-width:21200.000000; stroke-opacity:1; 
stroke-linecap:round; stroke-linejoin:round;">
</g>
<g style="fill:#000000; fill-opacity:0.0; 
stroke:#000000; stroke-width:150000.000000; stroke-opacity:1; 
stroke-linecap:round; stroke-linejoin:round;">
<path d="M210000000 198007200
L210000000 200007200
" />
</g>
<g style="fill:#000000; fill-opacity:0.0; 
stroke:#000000; stroke-width:21200.000000; stroke-opacity:1; 
stroke-linecap:round; stroke-linejoin:round;">
</g>
<g style="fill:#000000; fill-opacity:0.0; 
stroke:#000000; stroke-width:150000.000000; stroke-opacity:1; 
stroke-linecap:round; stroke-linejoin:round;">
<path d="M260000000 198007200
L260000000 200007200
" />
</g>
<g style="fill:#000000; fill-opacity:0.0; 
stroke:#000000; stroke-width:21200.000000; stroke-opacity:1; 
stroke-linecap:round; stroke-linejoin:round;">
</g>
<g style="fill:#000000; fill-opacity:0.0; 
stroke:#000000; stroke-width:150000.000000; stroke-opacity:1; 
stroke-linecap:round; stroke-linejoin:round;">
<text x="35000000.000000" y="199657200.000000"
textLength="1388095.000000" font-size="1733333.000000" lengthAdjust="spacingAndGlyphs"
text-anchor="start" opacity="0">1</text>
<g class="stroked-text"><desc>1</desc>
<path d="M36065476 199595295
L35322619 199595295
" />
<path d="M35694047 199595295
L35694047 198295295
L35570238 198481009
L35446428 198604819
L35322619 198666723
" />
</g></g>
<g style="fill:#000000; fill-opacity:0.0; 
stroke:#000000; stroke-width:21200.000000; stroke-opacity:1; 
stroke-linecap:round; stroke-linejoin:round;">
</g>
<g style="fill:#000000; fill-opacity:0.0; 
stroke:#000000; stroke-width:150000.000000; stroke-opacity:1; 
stroke-linecap:round; stroke-linejoin:round;">
<text x="85000000.000000" y="199657200.000000"
textLength="1388095.000000" font-size="1733333.000000" lengthAdjust="spacingAndGlyphs"
text-anchor="start" opacity="0">2</text>
<g class="stroked-text"><desc>2</desc>
<path d="M85322619 198419104
L85384523 198357200
L85508333 198295295
L85817857 198295295
L85941666 198357200
L86003571 198419104
L86065476 198542914
L86065476 198666723
L86003571 198852438
L85260714 199595295
L86065476 199595295
" />
</g></g>
<g style="fill:#000000; fill-opacity:0.0; 
stroke:#000000; stroke-width:21200.000000; stroke-opacity:1; 
stroke-linecap:round; stroke-linejoin:round;">
</g>
<g style="fill:#000000; fill-opacity:0.0; 
stroke:#000000; stroke-width:150000.000000; stroke-opacity:1; 
stroke-linecap:round; stroke-linejoin:round;">
<text x="135000000.000000" y="199657200.000000"
textLength="1388095.000000" font-size="1733333.000000" lengthAdjust="spacingAndGlyphs"
text-anchor="start" opacity="0">3</text>
<g class="stroked-text"><desc>3</desc>
<path d="M135260714 198295295
L136065476 198295295
L135632142 198790533
L135817857 198790533
L135941666 198852438
L136003571 198914342
L136065476 199038152
L136065476 199347676
L136003571 199471485
L135941666 199533390
L135817857 199595295
L135446428 199595295
L135322619 199533390
L135260714 199471485
" />
</g></g>
<g style="fill:#000000; fill-opacity:0.0; 
stroke:#000000; stroke-width:21200.000000; stroke-opacity:1; 
stroke-linecap:round; stroke-linejoin:round;">
</g>
<g style="fill:#000000; fill-opacity:0.0; 
stroke:#000000; stroke-width:150000.000000; stroke-opacity:1; 
stroke-linecap:round; stroke-linejoin:round;">
<text x="185000000.000000" y="199657200.000000"
textLength="1388095.000000" font-size="1733333.000000" lengthAdjust="spacingAndGlyphs"
text-anchor="start" opacity="0">4</text>
<g class="stroked-text"><desc>4</desc>
<path d="M185941666 198728628
L185941666 199595295
" />
<path d="M185632142 198233390
L185322619 199161961
L186127380 199161961
" />
</g></g>
<g style="fill:#000000; fill-opacity:0.0; 
stroke:#000000; stroke-width:21200.000000; stroke-opacity:1; 
stroke-linecap:round; stroke-linejoin:round;">
</g>
<g style="fill:#000000; fill-opacity:0.0; 
stroke:#000000; stroke-width:150000.000000; stroke-opacity:1; 
stroke-linecap:round; stroke-linejoin:round;">
<text x="235000000.000000" y="199657200.000000"
textLength="1388095.000000" font-size="1733333.000000" lengthAdjust="spacingAndGlyphs"
text-anchor="start" opacity="0">5</text>
<g class="stroked-text"><desc>5</desc>
<path d="M236003571 198295295
L235384523 198295295
L235322619 198914342
L235384523 198852438
L235508333 198790533
L235817857 198790533
L235941666 198852438
L236003571 198914342
L236065476 199038152
L236065476 199347676
L236003571 199471485
L235941666 199533390
L235817857 199595295
L235508333 199595295
L235384523 199533390
L235322619 199471485
" />
</g></g>
<g style="fill:#000000; fill-opacity:0.0; 
stroke:#000000; stroke-width:21200.000000; stroke-opacity:1; 
stroke-linecap:round; stroke-linejoin:round;">
</g>
<g style="fill:#000000; fill-opacity:0.0; 
stroke:#000000; stroke-width:150000.000000; stroke-opacity:1; 
stroke-linecap:round; stroke-linejoin:round;">
<text x="285000000.000000" y="199657200.000000"
textLength="1388095.000000" font-size="1733333.000000" lengthAdjust="spacingAndGlyphs"
text-anchor="start" opacity="0">6</text>
<g class="stroked-text"><desc>6</desc>
<path d="M285941666 198295295
L285694047 198295295
L285570238 198357200
L285508333 198419104
L285384523 198604819
L285322619 198852438
L285322619 199347676
L285384523 199471485
L285446428 199533390
L285570238 199595295
L285817857 199595295
L285941666 199533390
L286003571 199471485
L286065476 199347676
L286065476 199038152
L286003571 198914342
L285941666 198852438
L285817857 198790533
L285570238 198790533
L285446428 198852438
L285384523 198914342
L285322619 199038152
" />
</g></g>
<g style="fill:#000000; fill-opacity:0.0; 
stroke:#000000; stroke-width:21200.000000; stroke-opacity:1; 
stroke-linecap:round; stroke-linejoin:round;">
</g>
<g style="fill:#000000; fill-opacity:0.0; 
stroke:#000000; stroke-width:150000.000000; stroke-opacity:1; 
stroke-linecap:round; stroke-linejoin:round;">
<path d="M10000000 60000000
L12000000 60000000
" />
</g>
<g style="fill:#000000; fill-opacity:0.0; 
stroke:#000000; stroke-width:21200.000000; stroke-opacity:1; 
stroke-linecap:round; stroke-linejoin:round;">
</g>
<g style="fill:#000000; fill-opacity:0.0; 
stroke:#000000; stroke-width:150000.000000; stroke-opacity:1; 
stroke-linecap:round; stroke-linejoin:round;">
<path d="M10000000 110000000
L12000000 110000000
" />
</g>
<g style="fill:#000000; fill-opacity:0.0; 
stroke:#000000; stroke-width:21200.000000; stroke-opacity:1; 
stroke-linecap:round; stroke-linejoin:round;">
</g>
<g style="fill:#000000; fill-opacity:0.0; 
stroke:#000000; stroke-width:150000.000000; stroke-opacity:1; 
stroke-linecap:round; stroke-linejoin:round;">
<path d="M10000000 160000000
L12000000 160000000
" />
</g>
<g style="fill:#000000; fill-opacity:0.0; 
stroke:#000000; stroke-width:21200.000000; stroke-opacity:1; 
stroke-linecap:round; stroke-linejoin:round;">
</g>
<g style="fill:#000000; fill-opacity:0.0; 
stroke:#000000; stroke-width:150000.000000; stroke-opacity:1; 
stroke-linecap:round; stroke-linejoin:round;">
<text x="11000000.000000" y="35650000.000000"
textLength="1264286.000000" font-size="1733333.000000" lengthAdjust="spacingAndGlyphs"
text-anchor="middle" opacity="0">A</text>
<g class="stroked-text"><desc>A</desc>
<path d="M10690476 35216666
L11309523 35216666
" />
<path d="M10566666 35588095
L11000000 34288095
L11433333 35588095
" />
</g></g>
<g style="fill:#000000; fill-opacity:0.0; 
stroke:#000000; stroke-width:21200.000000; stroke-opacity:1; 
stroke-linecap:round; stroke-linejoin:round;">
</g>
<g style="fill:#000000; fill-opacity:0.0; 
stroke:#000000; stroke-width:150000.000000; stroke-opacity:1; 
stroke-linecap:round; stroke-linejoin:round;">
<text x="11000000.000000" y="85650000.000000"
textLength="1450000.000000" font-size="1733333.000000" lengthAdjust="spacingAndGlyphs"
text-anchor="middle" opacity="0">B</text>
<g class="stroked-text"><desc>B</desc>
<path d="M11092857 84907142
L11278571 84969047
L11340476 85030952
L11402380 85154761
L11402380 85340476
L11340476 85464285
L11278571 85526190
L11154761 85588095
L10659523 85588095
L10659523 84288095
L11092857 84288095
L11216666 84350000
L11278571 84411904
L11340476 84535714
L11340476 84659523
L11278571 84783333
L11216666 84845238
L11092857 84907142
L10659523 84907142
" />
</g></g>
<g style="fill:#000000; fill-opacity:0.0; 
stroke:#000000; stroke-width:21200.000000; stroke-opacity:1; 
stroke-linecap:round; stroke-linejoin:round;">
</g>
<g style="fill:#000000; fill-opacity:0.0; 
stroke:#000000; stroke-width:150000.000000; stroke-opacity:1; 
stroke-linecap:round; stroke-linejoin:round;">
<text x="11000000.000000" y="135650000.000000"
textLength="1450000.000000" font-size="1733333.000000" lengthAdjust="spacingAndGlyphs"
text-anchor="middle" opacity="0">C</text>
<g class="stroked-text"><desc>C</desc>
<path d="M11402380 135464285
L11340476 135526190
L11154761 135588095
L11030952 135588095
L10845238 135526190
L10721428 135402380
L10659523 135278571
L10597619 135030952
L10597619 134845238
L10659523 134597619
L10721428 134473809
L10845238 134350000
L11030952 134288095
L11154761 134288095
L11340476 134350000
L11402380 134411904
" />
</g></g>
<g style="fill:#000000; fill-opacity:0.0; 
stroke:#000000; stroke-width:21200.000000; stroke-opacity:1; 
stroke-linecap:round; stroke-linejoin:round;">
</g>
<g style="fill:#000000; fill-opacity:0.0; 
stroke:#000000; stroke-width:150000.000000; stroke-opacity:1; 
stroke-linecap:round; stroke-linejoin:round;">
<text x="11000000.000000" y="185650000.000000"
textLength="1450000.000000" font-size="1733333.000000" lengthAdjust="spacingAndGlyphs"
text-anchor="middle" opacity="0">D</text>
<g class="stroked-text"><desc>D</desc>
<path d="M10659523 185588095
L10659523 184288095
L10969047 184288095
L11154761 184350000
L11278571 184473809
L11340476 184597619
L11402380 184845238
L11402380 185030952
L11340476 185278571
L11278571 185402380
L11154761 185526190
L10969047 185588095
L10659523 185588095
" />
</g></g>
<g style="fill:#000000; fill-opacity:0.0; 
stroke:#000000; stroke-width:21200.000000; stroke-opacity:1; 
stroke-linecap:round; stroke-linejoin:round;">
</g>
<g style="fill:#000000; fill-opacity:0.0; 
stroke:#000000; stroke-width:150000.000000; stroke-opacity:1; 
stroke-linecap:round; stroke-linejoin:round;">
<path d="M287002200 60000000
L285002200 60000000
" />
</g>
<g style="fill:#000000; fill-opacity:0.0; 
stroke:#000000; stroke-width:21200.000000; stroke-opacity:1; 
stroke-linecap:round; stroke-linejoin:round;">
</g>
<g style="fill:#000000; fill-opacity:0.0; 
stroke:#000000; stroke-width:150000.000000; stroke-opacity:1; 
stroke-linecap:round; stroke-linejoin:round;">
<path d="M287002200 110000000
L285002200 110000000
" />
</g>
<g style="fill:#000000; fill-opacity:0.0; 
stroke:#000000; stroke-width:21200.000000; stroke-opacity:1; 
stroke-linecap:round; stroke-linejoin:round;">
</g>
<g style="fill:#000000; fill-opacity:0.0; 
stroke:#000000; stroke-width:150000.000000; stroke-opacity:1; 
stroke-linecap:round; stroke-linejoin:round;">
<path d="M287002200 160000000
L285002200 160000000
" />
</g>
<g style="fill:#000000; fill-opacity:0.0; 
stroke:#000000; stroke-width:21200.000000; stroke-opacity:1; 
stroke-linecap:round; stroke-linejoin:round;">
</g>
<g style="fill:#000000; fill-opacity:0.0; 
stroke:#000000; stroke-width:150000.000000; stroke-opacity:1; 
stroke-linecap:round; stroke-linejoin:round;">
<text x="286002200.000000" y="35650000.000000"
textLength="1264286.000000" font-size="1733333.000000" lengthAdjust="spacingAndGlyphs"
text-anchor="middle" opacity="0">A</text>
<g class="stroked-text"><desc>A</desc>
<path d="M285692676 35216666
L286311723 35216666
" />
<path d="M285568866 35588095
L286002200 34288095
L286435533 35588095
" />
</g></g>
<g style="fill:#000000; fill-opacity:0.0; 
stroke:#000000; stroke-width:21200.000000; stroke-opacity:1; 
stroke-linecap:round; stroke-linejoin:round;">
</g>
<g style="fill:#000000; fill-opacity:0.0; 
stroke:#000000; stroke-width:150000.000000; stroke-opacity:1; 
stroke-linecap:round; stroke-linejoin:round;">
<text x="286002200.000000" y="85650000.000000"
textLength="1450000.000000" font-size="1733333.000000" lengthAdjust="spacingAndGlyphs"
text-anchor="middle" opacity="0">B</text>
<g class="stroked-text"><desc>B</desc>
<path d="M286095057 84907142
L286280771 84969047
L286342676 85030952
L286404580 85154761
L286404580 85340476
L286342676 85464285
L286280771 85526190
L286156961 85588095
L285661723 85588095
L285661723 84288095
L286095057 84288095
L286218866 84350000
L286280771 84411904
L286342676 84535714
L286342676 84659523
L286280771 84783333
L286218866 84845238
L286095057 84907142
L285661723 84907142
" />
</g></g>
<g style="fill:#000000; fill-opacity:0.0; 
stroke:#000000; stroke-width:21200.000000; stroke-opacity:1; 
stroke-linecap:round; stroke-linejoin:round;">
</g>
<g style="fill:#000000; fill-opacity:0.0; 
stroke:#000000; stroke-width:150000.000000; stroke-opacity:1; 
stroke-linecap:round; stroke-linejoin:round;">
<text x="286002200.000000" y="135650000.000000"
textLength="1450000.000000" font-size="1733333.000000" lengthAdjust="spacingAndGlyphs"
text-anchor="middle" opacity="0">C</text>
<g class="stroked-text"><desc>C</desc>
<path d="M286404580 135464285
L286342676 135526190
L286156961 135588095
L286033152 135588095
L285847438 135526190
L285723628 135402380
L285661723 135278571
L285599819 135030952
L285599819 134845238
L285661723 134597619
L285723628 134473809
L285847438 134350000
L286033152 134288095
L286156961 134288095
L286342676 134350000
L286404580 134411904
" />
</g></g>
<g style="fill:#000000; fill-opacity:0.0; 
stroke:#000000; stroke-width:21200.000000; stroke-opacity:1; 
stroke-linecap:round; stroke-linejoin:round;">
</g>
<g style="fill:#000000; fill-opacity:0.0; 
stroke:#000000; stroke-width:150000.000000; stroke-opacity:1; 
stroke-linecap:round; stroke-linejoin:round;">
<text x="286002200.000000" y="185650000.000000"
textLength="1450000.000000" font-size="1733333.000000" lengthAdjust="spacingAndGlyphs"
text-anchor="middle" opacity="0">D</text>
<g class="stroked-text"><desc>D</desc>
<path d="M285661723 185588095
L285661723 184288095
L285971247 184288095
L286156961 184350000
L286280771 184473809
L286342676 184597619
L286404580 184845238
L286404580 185030952
L286342676 185278571
L286280771 185402380
L286156961 185526190
L285971247 185588095
L285661723 185588095
" />
</g></g>
<g style="fill:#000000; fill-opacity:0.0; 
stroke:#000000; stroke-width:21200.000000; stroke-opacity:1; 
stroke-linecap:round; stroke-linejoin:round;">
</g>
<g style="fill:#000000; fill-opacity:0.0; 
stroke:#000000; stroke-width:150000.000000; stroke-opacity:1; 
stroke-linecap:round; stroke-linejoin:round;">
<text x="200002200.000000" y="193857200.000000"
textLength="22150000.000000" font-size="2000000.000000" lengthAdjust="spacingAndGlyphs"
text-anchor="start" opacity="0">Date: 2022-02-03</text>
<g class="stroked-text"><desc>Date: 2022-02-03</desc>
<path d="M200434342 193785771
L200434342 192285771
L200791485 192285771
L201005771 192357200
L201148628 192500057
L201220057 192642914
L201291485 192928628
L201291485 193142914
L201220057 193428628
L201148628 193571485
L201005771 193714342
L200791485 193785771
L200434342 193785771
" />
<path d="M202577200 193785771
L202577200 193000057
L202505771 192857200
L202362914 192785771
L202077200 192785771
L201934342 192857200
" />
<path d="M202577200 193714342
L202434342 193785771
L202077200 193785771
L201934342 193714342
L201862914 193571485
L201862914 193428628
L201934342 193285771
L202077200 193214342
L202434342 193214342
L202577200 193142914
" />
<path d="M203077200 192785771
L203648628 192785771
" />
<path d="M203291485 192285771
L203291485 193571485
L203362914 193714342
L203505771 193785771
L203648628 193785771
" />
<path d="M204720057 193714342
L204577200 193785771
L204291485 193785771
L204148628 193714342
L204077200 193571485
L204077200 193000057
L204148628 192857200
L204291485 192785771
L204577200 192785771
L204720057 192857200
L204791485 193000057
L204791485 193142914
L204077200 193285771
" />
<path d="M205434342 193642914
L205505771 193714342
L205434342 193785771
L205362914 193714342
L205434342 193642914
L205434342 193785771
" />
<path d="M205434342 192857200
L205505771 192928628
L205434342 193000057
L205362914 192928628
L205434342 192857200
L205434342 193000057
" />
<path d="M207220057 192428628
L207291485 192357200
L207434342 192285771
L207791485 192285771
L207934342 192357200
L208005771 192428628
L208077200 192571485
L208077200 192714342
L208005771 192928628
L207148628 193785771
L208077200 193785771
" />
<path d="M209005771 192285771
L209148628 192285771
L209291485 192357200
L209362914 192428628
L209434342 192571485
L209505771 192857200
L209505771 193214342
L209434342 193500057
L209362914 193642914
L209291485 193714342
L209148628 193785771
L209005771 193785771
L208862914 193714342
L208791485 193642914
L208720057 193500057
L208648628 193214342
L208648628 192857200
L208720057 192571485
L208791485 192428628
L208862914 192357200
L209005771 192285771
" />
<path d="M210077200 192428628
L210148628 192357200
L210291485 192285771
L210648628 192285771
L210791485 192357200
L210862914 192428628
L210934342 192571485
L210934342 192714342
L210862914 192928628
L210005771 193785771
L210934342 193785771
" />
<path d="M211505771 192428628
L211577200 192357200
L211720057 192285771
L212077200 192285771
L212220057 192357200
L212291485 192428628
L212362914 192571485
L212362914 192714342
L212291485 192928628
L211434342 193785771
L212362914 193785771
" />
<path d="M213005771 193214342
L214148628 193214342
" />
<path d="M215148628 192285771
L215291485 192285771
L215434342 192357200
L215505771 192428628
L215577200 192571485
L215648628 192857200
L215648628 193214342
L215577200 193500057
L215505771 193642914
L215434342 193714342
L215291485 193785771
L215148628 193785771
L215005771 193714342
L214934342 193642914
L214862914 193500057
L214791485 193214342
L214791485 192857200
L214862914 192571485
L214934342 192428628
L215005771 192357200
L215148628 192285771
" />
<path d="M216220057 192428628
L216291485 192357200
L216434342 192285771
L216791485 192285771
L216934342 192357200
L217005771 192428628
L217077200 192571485
L217077200 192714342
L217005771 192928628
L216148628 193785771
L217077200 193785771
" />
<path d="M217720057 193214342
L218862914 193214342
" />
<path d="M219862914 192285771
L220005771 192285771
L220148628 192357200
L220220057 192428628
L220291485 192571485
L220362914 192857200
L220362914 193214342
L220291485 193500057
L220220057 193642914
L220148628 193714342
L220005771 193785771
L219862914 193785771
L219720057 193714342
L219648628 193642914
L219577200 193500057
L219505771 193214342
L219505771 192857200
L219577200 192571485
L219648628 192428628
L219720057 192357200
L219862914 192285771
" />
<path d="M220862914 192285771
L221791485 192285771
L221291485 192857200
L221505771 192857200
L221648628 192928628
L221720057 193000057
L221791485 193142914
L221791485 193500057
L221720057 193642914
L221648628 193714342
L221505771 193785771
L221077200 193785771
L220934342 193714342
L220862914 193642914
" />
</g></g>
<g style="fill:#000000; fill-opacity:0.0; 
stroke:#000000; stroke-width:21200.000000; stroke-opacity:1; 
stroke-linecap:round; stroke-linejoin:round;">
</g>
<g style="fill:#000000; fill-opacity:0.0; 
stroke:#000000; stroke-width:150000.000000; stroke-opacity:1; 
stroke-linecap:round; stroke-linejoin:round;">
<path d="M177002200 194507200
L285002200 194507200
" />
</g>
<g style="fill:#000000; fill-opacity:0.0; 
stroke:#000000; stroke-width:21200.000000; stroke-opacity:1; 
stroke-linecap:round; stroke-linejoin:round;">
</g>
<g style="fill:#000000; fill-opacity:0.0; 
stroke:#000000; stroke-width:150000.000000; stroke-opacity:1; 
stroke-linecap:round; stroke-linejoin:round;">
<text x="178002200.000000" y="196657200.000000"
textLength="33364286.000000" font-size="2000000.000000" lengthAdjust="spacingAndGlyphs"
text-anchor="start" opacity="0">KiCad E.D.A.  pcbnew (6.0.5)</text>
<g class="stroked-text"><desc>KiCad E.D.A.  pcbnew (6.0.5)</desc>
<path d="M178434342 196585771
L178434342 195085771
" />
<path d="M179291485 196585771
L178648628 195728628
" />
<path d="M179291485 195085771
L178434342 195942914
" />
<path d="M179934342 196585771
L179934342 195585771
" />
<path d="M179934342 195085771
L179862914 195157200
L179934342 195228628
L180005771 195157200
L179934342 195085771
L179934342 195228628
" />
<path d="M181505771 196442914
L181434342 196514342
L181220057 196585771
L181077200 196585771
L180862914 196514342
L180720057 196371485
L180648628 196228628
L180577200 195942914
L180577200 195728628
L180648628 195442914
L180720057 195300057
L180862914 195157200
L181077200 195085771
L181220057 195085771
L181434342 195157200
L181505771 195228628
" />
<path d="M182791485 196585771
L182791485 195800057
L182720057 195657200
L182577200 195585771
L182291485 195585771
L182148628 195657200
" />
<path d="M182791485 196514342
L182648628 196585771
L182291485 196585771
L182148628 196514342
L182077200 196371485
L182077200 196228628
L182148628 196085771
L182291485 196014342
L182648628 196014342
L182791485 195942914
" />
<path d="M184148628 196585771
L184148628 195085771
" />
<path d="M184148628 196514342
L184005771 196585771
L183720057 196585771
L183577200 196514342
L183505771 196442914
L183434342 196300057
L183434342 195871485
L183505771 195728628
L183577200 195657200
L183720057 195585771
L184005771 195585771
L184148628 195657200
" />
<path d="M186005771 195800057
L186505771 195800057
" />
<path d="M186720057 196585771
L186005771 196585771
L186005771 195085771
L186720057 195085771
" />
<path d="M187362914 196442914
L187434342 196514342
L187362914 196585771
L187291485 196514342
L187362914 196442914
L187362914 196585771
" />
<path d="M188077200 196585771
L188077200 195085771
L188434342 195085771
L188648628 195157200
L188791485 195300057
L188862914 195442914
L188934342 195728628
L188934342 195942914
L188862914 196228628
L188791485 196371485
L188648628 196514342
L188434342 196585771
L188077200 196585771
" />
<path d="M189577200 196442914
L189648628 196514342
L189577200 196585771
L189505771 196514342
L189577200 196442914
L189577200 196585771
" />
<path d="M190220057 196157200
L190934342 196157200
" />
<path d="M190077200 196585771
L190577200 195085771
L191077200 196585771
" />
<path d="M191577200 196442914
L191648628 196514342
L191577200 196585771
L191505771 196514342
L191577200 196442914
L191577200 196585771
" />
<path d="M194577200 195585771
L194577200 197085771
" />
<path d="M194577200 195657200
L194720057 195585771
L195005771 195585771
L195148628 195657200
L195220057 195728628
L195291485 195871485
L195291485 196300057
L195220057 196442914
L195148628 196514342
L195005771 196585771
L194720057 196585771
L194577200 196514342
" />
<path d="M196577200 196514342
L196434342 196585771
L196148628 196585771
L196005771 196514342
L195934342 196442914
L195862914 196300057
L195862914 195871485
L195934342 195728628
L196005771 195657200
L196148628 195585771
L196434342 195585771
L196577200 195657200
" />
<path d="M197220057 196585771
L197220057 195085771
" />
<path d="M197220057 195657200
L197362914 195585771
L197648628 195585771
L197791485 195657200
L197862914 195728628
L197934342 195871485
L197934342 196300057
L197862914 196442914
L197791485 196514342
L197648628 196585771
L197362914 196585771
L197220057 196514342
" />
<path d="M198577200 195585771
L198577200 196585771
" />
<path d="M198577200 195728628
L198648628 195657200
L198791485 195585771
L199005771 195585771
L199148628 195657200
L199220057 195800057
L199220057 196585771
" />
<path d="M200505771 196514342
L200362914 196585771
L200077200 196585771
L199934342 196514342
L199862914 196371485
L199862914 195800057
L199934342 195657200
L200077200 195585771
L200362914 195585771
L200505771 195657200
L200577200 195800057
L200577200 195942914
L199862914 196085771
" />
<path d="M201077200 195585771
L201362914 196585771
L201648628 195871485
L201934342 196585771
L202220057 195585771
" />
<path d="M204362914 197157200
L204291485 197085771
L204148628 196871485
L204077200 196728628
L204005771 196514342
L203934342 196157200
L203934342 195871485
L204005771 195514342
L204077200 195300057
L204148628 195157200
L204291485 194942914
L204362914 194871485
" />
<path d="M205577200 195085771
L205291485 195085771
L205148628 195157200
L205077200 195228628
L204934342 195442914
L204862914 195728628
L204862914 196300057
L204934342 196442914
L205005771 196514342
L205148628 196585771
L205434342 196585771
L205577200 196514342
L205648628 196442914
L205720057 196300057
L205720057 195942914
L205648628 195800057
L205577200 195728628
L205434342 195657200
L205148628 195657200
L205005771 195728628
L204934342 195800057
L204862914 195942914
" />
<path d="M206362914 196442914
L206434342 196514342
L206362914 196585771
L206291485 196514342
L206362914 196442914
L206362914 196585771
" />
<path d="M207362914 195085771
L207505771 195085771
L207648628 195157200
L207720057 195228628
L207791485 195371485
L207862914 195657200
L207862914 196014342
L207791485 196300057
L207720057 196442914
L207648628 196514342
L207505771 196585771
L207362914 196585771
L207220057 196514342
L207148628 196442914
L207077200 196300057
L207005771 196014342
L207005771 195657200
L207077200 195371485
L207148628 195228628
L207220057 195157200
L207362914 195085771
" />
<path d="M208505771 196442914
L208577200 196514342
L208505771 196585771
L208434342 196514342
L208505771 196442914
L208505771 196585771
" />
<path d="M209934342 195085771
L209220057 195085771
L209148628 195800057
L209220057 195728628
L209362914 195657200
L209720057 195657200
L209862914 195728628
L209934342 195800057
L210005771 195942914
L210005771 196300057
L209934342 196442914
L209862914 196514342
L209720057 196585771
L209362914 196585771
L209220057 196514342
L209148628 196442914
" />
<path d="M210505771 197157200
L210577200 197085771
L210720057 196871485
L210791485 196728628
L210862914 196514342
L210934342 196157200
L210934342 195871485
L210862914 195514342
L210791485 195300057
L210720057 195157200
L210577200 194942914
L210505771 194871485
" />
</g></g>
<g style="fill:#000000; fill-opacity:0.0; 
stroke:#000000; stroke-width:21200.000000; stroke-opacity:1; 
stroke-linecap:round; stroke-linejoin:round;">
</g>
<g style="fill:#000000; fill-opacity:0.0; 
stroke:#000000; stroke-width:150000.000000; stroke-opacity:1; 
stroke-linecap:round; stroke-linejoin:round;">
<path d="M177002200 191507200
L285002200 191507200
" />
</g>
<g style="fill:#000000; fill-opacity:0.0; 
stroke:#000000; stroke-width:21200.000000; stroke-opacity:1; 
stroke-linecap:round; stroke-linejoin:round;">
</g>
<g style="fill:#000000; fill-opacity:0.0; 
stroke:#000000; stroke-width:300000.000000; stroke-opacity:1; 
stroke-linecap:round; stroke-linejoin:round;">
<text x="263002200.000000" y="193857200.000000"
textLength="11650000.000000" font-size="2000000.000000" lengthAdjust="spacingAndGlyphs"
text-anchor="start" opacity="0">Rev: 0.5.1</text>
<g class="stroked-text"><desc>Rev: 0.5.1</desc>
<path d="M264411485 193785771
L263911485 193071485
" />
<path d="M263554342 193785771
L263554342 192285771
L264125771 192285771
L264268628 192357200
L264340057 192428628
L264411485 192571485
L264411485 192785771
L264340057 192928628
L264268628 193000057
L264125771 193071485
L263554342 193071485
" />
<path d="M265625771 193714342
L265482914 193785771
L265197200 193785771
L265054342 193714342
L264982914 193571485
L264982914 193000057
L265054342 192857200
L265197200 192785771
L265482914 192785771
L265625771 192857200
L265697200 193000057
L265697200 193142914
L264982914 193285771
" />
<path d="M266197200 192785771
L266554342 193785771
L266911485 192785771
" />
<path d="M267482914 193642914
L267554342 193714342
L267482914 193785771
L267411485 193714342
L267482914 193642914
L267482914 193785771
" />
<path d="M267482914 192857200
L267554342 192928628
L267482914 193000057
L267411485 192928628
L267482914 192857200
L267482914 193000057
" />
<path d="M269625771 192285771
L269768628 192285771
L269911485 192357200
L269982914 192428628
L270054342 192571485
L270125771 192857200
L270125771 193214342
L270054342 193500057
L269982914 193642914
L269911485 193714342
L269768628 193785771
L269625771 193785771
L269482914 193714342
L269411485 193642914
L269340057 193500057
L269268628 193214342
L269268628 192857200
L269340057 192571485
L269411485 192428628
L269482914 192357200
L269625771 192285771
" />
<path d="M270768628 193642914
L270840057 193714342
L270768628 193785771
L270697200 193714342
L270768628 193642914
L270768628 193785771
" />
<path d="M272197200 192285771
L271482914 192285771
L271411485 193000057
L271482914 192928628
L271625771 192857200
L271982914 192857200
L272125771 192928628
L272197200 193000057
L272268628 193142914
L272268628 193500057
L272197200 193642914
L272125771 193714342
L271982914 193785771
L271625771 193785771
L271482914 193714342
L271411485 193642914
" />
<path d="M272911485 193642914
L272982914 193714342
L272911485 193785771
L272840057 193714342
L272911485 193642914
L272911485 193785771
" />
<path d="M274411485 193785771
L273554342 193785771
" />
<path d="M273982914 193785771
L273982914 192285771
L273840057 192500057
L273697200 192642914
L273554342 192714342
" />
</g></g>
<g style="fill:#000000; fill-opacity:0.0; 
stroke:#000000; stroke-width:21200.000000; stroke-opacity:1; 
stroke-linecap:round; stroke-linejoin:round;">
</g>
<g style="fill:#000000; fill-opacity:0.0; 
stroke:#000000; stroke-width:150000.000000; stroke-opacity:1; 
stroke-linecap:round; stroke-linejoin:round;">
<text x="178002200.000000" y="193857200.000000"
textLength="9604286.000000" font-size="2000000.000000" lengthAdjust="spacingAndGlyphs"
text-anchor="start" opacity="0">Size: A4</text>
<g class="stroked-text"><desc>Size: A4</desc>
<path d="M178362914 193714342
L178577200 193785771
L178934342 193785771
L179077200 193714342
L179148628 193642914
L179220057 193500057
L179220057 193357200
L179148628 193214342
L179077200 193142914
L178934342 193071485
L178648628 193000057
L178505771 192928628
L178434342 192857200
L178362914 192714342
L178362914 192571485
L178434342 192428628
L178505771 192357200
L178648628 192285771
L179005771 192285771
L179220057 192357200
" />
<path d="M179862914 193785771
L179862914 192785771
" />
<path d="M179862914 192285771
L179791485 192357200
L179862914 192428628
L179934342 192357200
L179862914 192285771
L179862914 192428628
" />
<path d="M180434342 192785771
L181220057 192785771
L180434342 193785771
L181220057 193785771
" />
<path d="M182362914 193714342
L182220057 193785771
L181934342 193785771
L181791485 193714342
L181720057 193571485
L181720057 193000057
L181791485 192857200
L181934342 192785771
L182220057 192785771
L182362914 192857200
L182434342 193000057
L182434342 193142914
L181720057 193285771
" />
<path d="M183077200 193642914
L183148628 193714342
L183077200 193785771
L183005771 193714342
L183077200 193642914
L183077200 193785771
" />
<path d="M183077200 192857200
L183148628 192928628
L183077200 193000057
L183005771 192928628
L183077200 192857200
L183077200 193000057
" />
<path d="M184862914 193357200
L185577200 193357200
" />
<path d="M184720057 193785771
L185220057 192285771
L185720057 193785771
" />
<path d="M186862914 192785771
L186862914 193785771
" />
<path d="M186505771 192214342
L186148628 193285771
L187077200 193285771
" />
</g></g>
<g style="fill:#000000; fill-opacity:0.0; 
stroke:#000000; stroke-width:21200.000000; stroke-opacity:1; 
stroke-linecap:round; stroke-linejoin:round;">
</g>
<g style="fill:#000000; fill-opacity:0.0; 
stroke:#000000; stroke-width:150000.000000; stroke-opacity:1; 
stroke-linecap:round; stroke-linejoin:round;">
<text x="263002200.000000" y="196657200.000000"
textLength="8507143.000000" font-size="2000000.000000" lengthAdjust="spacingAndGlyphs"
text-anchor="start" opacity="0">Id: 1/1</text>
<g class="stroked-text"><desc>Id: 1/1</desc>
<path d="M263434342 196585771
L263434342 195085771
" />
<path d="M264791485 196585771
L264791485 195085771
" />
<path d="M264791485 196514342
L264648628 196585771
L264362914 196585771
L264220057 196514342
L264148628 196442914
L264077200 196300057
L264077200 195871485
L264148628 195728628
L264220057 195657200
L264362914 195585771
L264648628 195585771
L264791485 195657200
" />
<path d="M265505771 196442914
L265577200 196514342
L265505771 196585771
L265434342 196514342
L265505771 196442914
L265505771 196585771
" />
<path d="M265505771 195657200
L265577200 195728628
L265505771 195800057
L265434342 195728628
L265505771 195657200
L265505771 195800057
" />
<path d="M268148628 196585771
L267291485 196585771
" />
<path d="M267720057 196585771
L267720057 195085771
L267577200 195300057
L267434342 195442914
L267291485 195514342
" />
<path d="M269862914 195014342
L268577200 196942914
" />
<path d="M271148628 196585771
L270291485 196585771
" />
<path d="M270720057 196585771
L270720057 195085771
L270577200 195300057
L270434342 195442914
L270291485 195514342
" />
</g></g>
<g style="fill:#000000; fill-opacity:0.0; 
stroke:#000000; stroke-width:21200.000000; stroke-opacity:1; 
stroke-linecap:round; stroke-linejoin:round;">
</g>
<g style="fill:#000000; fill-opacity:0.0; 
stroke:#000000; stroke-width:150000.000000; stroke-opacity:1; 
stroke-linecap:round; stroke-linejoin:round;">
<path d="M177002200 187507200
L285002200 187507200
" />
</g>
<g style="fill:#000000; fill-opacity:0.0; 
stroke:#000000; stroke-width:21200.000000; stroke-opacity:1; 
stroke-linecap:round; stroke-linejoin:round;">
</g>
<g style="fill:#000000; fill-opacity:0.0; 
stroke:#000000; stroke-width:400000.000000; stroke-opacity:1; 
stroke-linecap:round; stroke-linejoin:round;">
<text x="178002200.000000" y="190307200.000000"
textLength="23219167.000000" font-size="2666666.000000" lengthAdjust="spacingAndGlyphs"
text-anchor="start" opacity="0">Title: Chocolad</text>
<g class="stroked-text"><desc>Title: Chocolad</desc>
<path d="M178714580 188211961
L179857438 188211961
" />
<path d="M179036009 190211961
L179286009 188211961
" />
<path d="M180274104 190211961
L180440771 188878628
" />
<path d="M180524104 188211961
L180416961 188307200
L180500295 188402438
L180607438 188307200
L180524104 188211961
L180500295 188402438
" />
<path d="M181107438 188878628
L181869342 188878628
" />
<path d="M181476485 188211961
L181262200 189926247
L181333628 190116723
L181512200 190211961
L181702676 190211961
" />
<path d="M182655057 190211961
L182476485 190116723
L182405057 189926247
L182619342 188211961
" />
<path d="M184190771 190116723
L183988390 190211961
L183607438 190211961
L183428866 190116723
L183357438 189926247
L183452676 189164342
L183571723 188973866
L183774104 188878628
L184155057 188878628
L184333628 188973866
L184405057 189164342
L184381247 189354819
L183405057 189545295
" />
<path d="M185155057 190021485
L185238390 190116723
L185131247 190211961
L185047914 190116723
L185155057 190021485
L185131247 190211961
" />
<path d="M185286009 188973866
L185369342 189069104
L185262200 189164342
L185178866 189069104
L185286009 188973866
L185262200 189164342
" />
<path d="M188774104 190021485
L188666961 190116723
L188369342 190211961
L188178866 190211961
L187905057 190116723
L187738390 189926247
L187666961 189735771
L187619342 189354819
L187655057 189069104
L187797914 188688152
L187916961 188497676
L188131247 188307200
L188428866 188211961
L188619342 188211961
L188893152 188307200
L188976485 188402438
" />
<path d="M189607438 190211961
L189857438 188211961
" />
<path d="M190464580 190211961
L190595533 189164342
L190524104 188973866
L190345533 188878628
L190059819 188878628
L189857438 188973866
L189750295 189069104
" />
<path d="M191702676 190211961
L191524104 190116723
L191440771 190021485
L191369342 189831009
L191440771 189259580
L191559819 189069104
L191666961 188973866
L191869342 188878628
L192155057 188878628
L192333628 188973866
L192416961 189069104
L192488390 189259580
L192416961 189831009
L192297914 190021485
L192190771 190116723
L191988390 190211961
L191702676 190211961
" />
<path d="M194095533 190116723
L193893152 190211961
L193512200 190211961
L193333628 190116723
L193250295 190021485
L193178866 189831009
L193250295 189259580
L193369342 189069104
L193476485 188973866
L193678866 188878628
L194059819 188878628
L194238390 188973866
" />
<path d="M195226485 190211961
L195047914 190116723
L194964580 190021485
L194893152 189831009
L194964580 189259580
L195083628 189069104
L195190771 188973866
L195393152 188878628
L195678866 188878628
L195857438 188973866
L195940771 189069104
L196012200 189259580
L195940771 189831009
L195821723 190021485
L195714580 190116723
L195512200 190211961
L195226485 190211961
" />
<path d="M197036009 190211961
L196857438 190116723
L196786009 189926247
L197000295 188211961
" />
<path d="M198655057 190211961
L198786009 189164342
L198714580 188973866
L198536009 188878628
L198155057 188878628
L197952676 188973866
" />
<path d="M198666961 190116723
L198464580 190211961
L197988390 190211961
L197809819 190116723
L197738390 189926247
L197762200 189735771
L197881247 189545295
L198083628 189450057
L198559819 189450057
L198762200 189354819
" />
<path d="M200464580 190211961
L200714580 188211961
" />
<path d="M200476485 190116723
L200274104 190211961
L199893152 190211961
L199714580 190116723
L199631247 190021485
L199559819 189831009
L199631247 189259580
L199750295 189069104
L199857438 188973866
L200059819 188878628
L200440771 188878628
L200619342 188973866
" />
</g></g>
<g style="fill:#000000; fill-opacity:0.0; 
stroke:#000000; stroke-width:21200.000000; stroke-opacity:1; 
stroke-linecap:round; stroke-linejoin:round;">
</g>
<g style="fill:#000000; fill-opacity:0.0; 
stroke:#000000; stroke-width:150000.000000; stroke-opacity:1; 
stroke-linecap:round; stroke-linejoin:round;">
<text x="178002200.000000" y="186457200.000000"
textLength="28377143.000000" font-size="2000000.000000" lengthAdjust="spacingAndGlyphs"
text-anchor="start" opacity="0">File: chocolad.kicad_pcb</text>
<g class="stroked-text"><desc>File: chocolad.kicad_pcb</desc>
<path d="M178934342 185600057
L178434342 185600057
" />
<path d="M178434342 186385771
L178434342 184885771
L179148628 184885771
" />
<path d="M179720057 186385771
L179720057 185385771
" />
<path d="M179720057 184885771
L179648628 184957200
L179720057 185028628
L179791485 184957200
L179720057 184885771
L179720057 185028628
" />
<path d="M180648628 186385771
L180505771 186314342
L180434342 186171485
L180434342 184885771
" />
<path d="M181791485 186314342
L181648628 186385771
L181362914 186385771
L181220057 186314342
L181148628 186171485
L181148628 185600057
L181220057 185457200
L181362914 185385771
L181648628 185385771
L181791485 185457200
L181862914 185600057
L181862914 185742914
L181148628 185885771
" />
<path d="M182505771 186242914
L182577200 186314342
L182505771 186385771
L182434342 186314342
L182505771 186242914
L182505771 186385771
" />
<path d="M182505771 185457200
L182577200 185528628
L182505771 185600057
L182434342 185528628
L182505771 185457200
L182505771 185600057
" />
<path d="M185005771 186314342
L184862914 186385771
L184577200 186385771
L184434342 186314342
L184362914 186242914
L184291485 186100057
L184291485 185671485
L184362914 185528628
L184434342 185457200
L184577200 185385771
L184862914 185385771
L185005771 185457200
" />
<path d="M185648628 186385771
L185648628 184885771
" />
<path d="M186291485 186385771
L186291485 185600057
L186220057 185457200
L186077200 185385771
L185862914 185385771
L185720057 185457200
L185648628 185528628
" />
<path d="M187220057 186385771
L187077200 186314342
L187005771 186242914
L186934342 186100057
L186934342 185671485
L187005771 185528628
L187077200 185457200
L187220057 185385771
L187434342 185385771
L187577200 185457200
L187648628 185528628
L187720057 185671485
L187720057 186100057
L187648628 186242914
L187577200 186314342
L187434342 186385771
L187220057 186385771
" />
<path d="M189005771 186314342
L188862914 186385771
L188577200 186385771
L188434342 186314342
L188362914 186242914
L188291485 186100057
L188291485 185671485
L188362914 185528628
L188434342 185457200
L188577200 185385771
L188862914 185385771
L189005771 185457200
" />
<path d="M189862914 186385771
L189720057 186314342
L189648628 186242914
L189577200 186100057
L189577200 185671485
L189648628 185528628
L189720057 185457200
L189862914 185385771
L190077200 185385771
L190220057 185457200
L190291485 185528628
L190362914 185671485
L190362914 186100057
L190291485 186242914
L190220057 186314342
L190077200 186385771
L189862914 186385771
" />
<path d="M191220057 186385771
L191077200 186314342
L191005771 186171485
L191005771 184885771
" />
<path d="M192434342 186385771
L192434342 185600057
L192362914 185457200
L192220057 185385771
L191934342 185385771
L191791485 185457200
" />
<path d="M192434342 186314342
L192291485 186385771
L191934342 186385771
L191791485 186314342
L191720057 186171485
L191720057 186028628
L191791485 185885771
L191934342 185814342
L192291485 185814342
L192434342 185742914
" />
<path d="M193791485 186385771
L193791485 184885771
" />
<path d="M193791485 186314342
L193648628 186385771
L193362914 186385771
L193220057 186314342
L193148628 186242914
L193077200 186100057
L193077200 185671485
L193148628 185528628
L193220057 185457200
L193362914 185385771
L193648628 185385771
L193791485 185457200
" />
<path d="M194505771 186242914
L194577200 186314342
L194505771 186385771
L194434342 186314342
L194505771 186242914
L194505771 186385771
" />
<path d="M195220057 186385771
L195220057 184885771
" />
<path d="M195362914 185814342
L195791485 186385771
" />
<path d="M195791485 185385771
L195220057 185957200
" />
<path d="M196434342 186385771
L196434342 185385771
" />
<path d="M196434342 184885771
L196362914 184957200
L196434342 185028628
L196505771 184957200
L196434342 184885771
L196434342 185028628
" />
<path d="M197791485 186314342
L197648628 186385771
L197362914 186385771
L197220057 186314342
L197148628 186242914
L197077200 186100057
L197077200 185671485
L197148628 185528628
L197220057 185457200
L197362914 185385771
L197648628 185385771
L197791485 185457200
" />
<path d="M199077200 186385771
L199077200 185600057
L199005771 185457200
L198862914 185385771
L198577200 185385771
L198434342 185457200
" />
<path d="M199077200 186314342
L198934342 186385771
L198577200 186385771
L198434342 186314342
L198362914 186171485
L198362914 186028628
L198434342 185885771
L198577200 185814342
L198934342 185814342
L199077200 185742914
" />
<path d="M200434342 186385771
L200434342 184885771
" />
<path d="M200434342 186314342
L200291485 186385771
L200005771 186385771
L199862914 186314342
L199791485 186242914
L199720057 186100057
L199720057 185671485
L199791485 185528628
L199862914 185457200
L200005771 185385771
L200291485 185385771
L200434342 185457200
" />
<path d="M200791485 186528628
L201934342 186528628
" />
<path d="M202291485 185385771
L202291485 186885771
" />
<path d="M202291485 185457200
L202434342 185385771
L202720057 185385771
L202862914 185457200
L202934342 185528628
L203005771 185671485
L203005771 186100057
L202934342 186242914
L202862914 186314342
L202720057 186385771
L202434342 186385771
L202291485 186314342
" />
<path d="M204291485 186314342
L204148628 186385771
L203862914 186385771
L203720057 186314342
L203648628 186242914
L203577200 186100057
L203577200 185671485
L203648628 185528628
L203720057 185457200
L203862914 185385771
L204148628 185385771
L204291485 185457200
" />
<path d="M204934342 186385771
L204934342 184885771
" />
<path d="M204934342 185457200
L205077200 185385771
L205362914 185385771
L205505771 185457200
L205577200 185528628
L205648628 185671485
L205648628 186100057
L205577200 186242914
L205505771 186314342
L205362914 186385771
L205077200 186385771
L204934342 186314342
" />
</g></g>
<g style="fill:#000000; fill-opacity:0.0; 
stroke:#000000; stroke-width:21200.000000; stroke-opacity:1; 
stroke-linecap:round; stroke-linejoin:round;">
</g>
<g style="fill:#000000; fill-opacity:0.0; 
stroke:#000000; stroke-width:150000.000000; stroke-opacity:1; 
stroke-linecap:round; stroke-linejoin:round;">
<path d="M177002200 181507200
L285002200 181507200
" />
</g>
<g style="fill:#000000; fill-opacity:0.0; 
stroke:#000000; stroke-width:21200.000000; stroke-opacity:1; 
stroke-linecap:round; stroke-linejoin:round;">
</g>
<g style="fill:#000000; fill-opacity:0.0; 
stroke:#000000; stroke-width:150000.000000; stroke-opacity:1; 
stroke-linecap:round; stroke-linejoin:round;">
<text x="178002200.000000" y="183757200.000000"
textLength="8221429.000000" font-size="2000000.000000" lengthAdjust="spacingAndGlyphs"
text-anchor="start" opacity="0">Sheet: </text>
<g class="stroked-text"><desc>Sheet: </desc>
<path d="M178362914 183614342
L178577200 183685771
L178934342 183685771
L179077200 183614342
L179148628 183542914
L179220057 183400057
L179220057 183257200
L179148628 183114342
L179077200 183042914
L178934342 182971485
L178648628 182900057
L178505771 182828628
L178434342 182757200
L178362914 182614342
L178362914 182471485
L178434342 182328628
L178505771 182257200
L178648628 182185771
L179005771 182185771
L179220057 182257200
" />
<path d="M179862914 183685771
L179862914 182185771
" />
<path d="M180505771 183685771
L180505771 182900057
L180434342 182757200
L180291485 182685771
L180077200 182685771
L179934342 182757200
L179862914 182828628
" />
<path d="M181791485 183614342
L181648628 183685771
L181362914 183685771
L181220057 183614342
L181148628 183471485
L181148628 182900057
L181220057 182757200
L181362914 182685771
L181648628 182685771
L181791485 182757200
L181862914 182900057
L181862914 183042914
L181148628 183185771
" />
<path d="M183077200 183614342
L182934342 183685771
L182648628 183685771
L182505771 183614342
L182434342 183471485
L182434342 182900057
L182505771 182757200
L182648628 182685771
L182934342 182685771
L183077200 182757200
L183148628 182900057
L183148628 183042914
L182434342 183185771
" />
<path d="M183577200 182685771
L184148628 182685771
" />
<path d="M183791485 182185771
L183791485 183471485
L183862914 183614342
L184005771 183685771
L184148628 183685771
" />
<path d="M184648628 183542914
L184720057 183614342
L184648628 183685771
L184577200 183614342
L184648628 183542914
L184648628 183685771
" />
<path d="M184648628 182757200
L184720057 182828628
L184648628 182900057
L184577200 182828628
L184648628 182757200
L184648628 182900057
" />
</g></g>
<g style="fill:#000000; fill-opacity:0.0; 
stroke:#000000; stroke-width:21200.000000; stroke-opacity:1; 
stroke-linecap:round; stroke-linejoin:round;">
</g>
<g style="fill:#000000; fill-opacity:0.0; 
stroke:#000000; stroke-width:300000.000000; stroke-opacity:1; 
stroke-linecap:round; stroke-linejoin:round;">
<text x="178002200.000000" y="180757200.000000"
textLength="5792857.000000" font-size="2000000.000000" lengthAdjust="spacingAndGlyphs"
text-anchor="start" opacity="0">jmnw</text>
<g class="stroked-text"><desc>jmnw</desc>
<path d="M178554342 179685771
L178554342 180971485
L178482914 181114342
L178340057 181185771
L178268628 181185771
" />
<path d="M178554342 179185771
L178482914 179257200
L178554342 179328628
L178625771 179257200
L178554342 179185771
L178554342 179328628
" />
<path d="M179268628 180685771
L179268628 179685771
" />
<path d="M179268628 179828628
L179340057 179757200
L179482914 179685771
L179697200 179685771
L179840057 179757200
L179911485 179900057
L179911485 180685771
" />
<path d="M179911485 179900057
L179982914 179757200
L180125771 179685771
L180340057 179685771
L180482914 179757200
L180554342 179900057
L180554342 180685771
" />
<path d="M181268628 179685771
L181268628 180685771
" />
<path d="M181268628 179828628
L181340057 179757200
L181482914 179685771
L181697200 179685771
L181840057 179757200
L181911485 179900057
L181911485 180685771
" />
<path d="M182482914 179685771
L182768628 180685771
L183054342 179971485
L183340057 180685771
L183625771 179685771
" />
</g></g>
<g style="fill:#000000; fill-opacity:0.0; 
stroke:#000000; stroke-width:21200.000000; stroke-opacity:1; 
stroke-linecap:round; stroke-linejoin:round;">
</g>
<g style="fill:#000000; fill-opacity:0.0; 
stroke:#000000; stroke-width:150000.000000; stroke-opacity:1; 
stroke-linecap:round; stroke-linejoin:round;">
<text x="178002200.000000" y="177757200.000000"
textLength="390000.000000" font-size="2000000.000000" lengthAdjust="spacingAndGlyphs"
text-anchor="start" opacity="0"></text>
<g class="stroked-text"><desc></desc>
</g></g>
<g style="fill:#000000; fill-opacity:0.0; 
stroke:#000000; stroke-width:21200.000000; stroke-opacity:1; 
stroke-linecap:round; stroke-linejoin:round;">
</g>
<g style="fill:#000000; fill-opacity:0.0; 
stroke:#000000; stroke-width:150000.000000; stroke-opacity:1; 
stroke-linecap:round; stroke-linejoin:round;">
<text x="178002200.000000" y="174757200.000000"
textLength="150000.000000" font-size="2000000.000000" lengthAdjust="spacingAndGlyphs"
text-anchor="start" opacity="0"></text>
<g class="stroked-text"><desc></desc>
</g></g>
<g style="fill:#000000; fill-opacity:0.0; 
stroke:#000000; stroke-width:21200.000000; stroke-opacity:1; 
stroke-linecap:round; stroke-linejoin:round;">
</g>
<g style="fill:#000000; fill-opacity:0.0; 
stroke:#000000; stroke-width:150000.000000; stroke-opacity:1; 
stroke-linecap:round; stroke-linejoin:round;">
<text x="178002200.000000" y="171757200.000000"
textLength="150000.000000" font-size="2000000.000000" lengthAdjust="spacingAndGlyphs"
text-anchor="start" opacity="0"></text>
<g class="stroked-text"><desc></desc>
</g></g>
<g style="fill:#000000; fill-opacity:0.0; 
stroke:#000000; stroke-width:21200.000000; stroke-opacity:1; 
stroke-linecap:round; stroke-linejoin:round;">
</g>
<g style="fill:#000000; fill-opacity:0.0; 
stroke:#000000; stroke-width:150000.000000; stroke-opacity:1; 
stroke-linecap:round; stroke-linejoin:round;">
<text x="178002200.000000" y="168757200.000000"
textLength="150000.000000" font-size="2000000.000000" lengthAdjust="spacingAndGlyphs"
text-anchor="start" opacity="0"></text>
<g class="stroked-text"><desc></desc>
</g></g>
<g style="fill:#000000; fill-opacity:0.0; 
stroke:#000000; stroke-width:21200.000000; stroke-opacity:1; 
stroke-linecap:round; stroke-linejoin:round;">
</g>
<g style="fill:#000000; fill-opacity:0.0; 
stroke:#000000; stroke-width:150000.000000; stroke-opacity:1; 
stroke-linecap:round; stroke-linejoin:round;">
<path d="M197002200 191507200
L197002200 194507200
" />
</g>
<g style="fill:#000000; fill-opacity:0.0; 
stroke:#000000; stroke-width:21200.000000; stroke-opacity:1; 
stroke-linecap:round; stroke-linejoin:round;">
</g>
<g style="fill:#000000; fill-opacity:0.0; 
stroke:#000000; stroke-width:150000.000000; stroke-opacity:1; 
stroke-linecap:round; stroke-linejoin:round;">
<path d="M261002200 191507200
L261002200 198007200
" />
</g>
<g style="fill:#FF26E2; fill-opacity:0.0; 
stroke:#FF26E2; stroke-width:150000.000000; stroke-opacity:1; 
stroke-linecap:round; stroke-linejoin:round;">
</g>
<g style="fill:#FF26E2; fill-opacity:0.0; 
stroke:#FF26E2; stroke-width:50000.000000; stroke-opacity:1; 
stroke-linecap:round; stroke-linejoin:round;">
<path d="M89548221 105732879
L107048221 105732879
" />
<path d="M107048221 119932879
L107048221 105732879
" />
<path d="M107048221 119932879
L89548221 119932879
" />
<path d="M89548221 105732879
L89548221 119932879
" />
<path d="M132827447 112482857
L147982892 121232857
" />
<path d="M140882892 133530417
L147982892 121232857
" />
<path d="M132827447 112482857
L125727447 124780417
" />
<path d="M140882892 133530417
L125727447 124780417
" />
</g>
<g style="fill:#FF26E2; fill-opacity:0.0; 
stroke:#FF26E2; stroke-width:200000.000000; stroke-opacity:1; 
stroke-linecap:round; stroke-linejoin:round;">
<path d="M113384756 86558266
L75284756 86558266
" />
<path d="M104334756 102558266
L84334756 102558266
" />
<path d="M104334756 67358266
L84334756 67358266
" />
<path d="M113384756 83358266
L75284756 83358266
" />
<g >
</g>
<g >
</g>
<g >
</g>
<g >
</g>
<g >
</g>
<g >
</g>
<g >
</g>
<g >
</g>
<g >
</g>
<g >
</g>
<g >
</g>
<g >
</g>
<g >
</g>
<g >
</g>
<g >
</g>
<g >
</g>
<g >
</g>
<g >
</g>
<g >
</g>
<g >
</g>
<g >
</g>
<g >
</g>
<g >
</g>
<g >
</g>
<g >
</g>
<g >
</g>
<g >
</g>
<g >
</g>
<g >
</g>
<g >
</g>
<g >
</g>
<g >
</g>
<g >
</g>
<g >
</g>
<g >
</g>
<g >
</g>
<g >
</g>
<g >
</g>
<g >
</g>
<g >
</g>
<g >
</g>
<g >
</g>
<g >
</g>
<g >
</g>
<g >
</g>
<g >
</g>
<g >
</g>
<g >
</g>
<g >
</g>
<g >
</g>
<g >
</g>
<g >
</g>
<g >
</g>
<g >
</g>
<g >
</g>
<g >
</g>
<g >
</g>
<g >
</g>
<g >
</g>
<g >
</g>
<g >
</g>
<g >
</g>
<g >
</g>
<g >
</g>
<g >
</g>
<g >
</g>
<g >
</g>
<g >
</g>
<g >
</g>
<g >
</g>
<g >
</g>
<g >
</g>
<g >
</g>
<g >
</g>
<g >
</g>
<g >
</g>
<g >
</g>
</g>
<g style="fill:#000000; fill-opacity:0.0; 
stroke:#000000; stroke-width:200000.000000; stroke-opacity:1; 
stroke-linecap:round; stroke-linejoin:round;">
</g>
<g style="fill:#D8C852; fill-opacity:0.0; 
stroke:#D8C852; stroke-width:200000.000000; stroke-opacity:1; 
stroke-linecap:round; stroke-linejoin:round;">
</g>
<g style="fill:#D8C852; fill-opacity:0.0; 
stroke:#D8C852; stroke-width:50000.000000; stroke-opacity:1; 
stroke-linecap:round; stroke-linejoin:round;">
<path d="M130710201.584464 108734594.841626 A749944.000000 749944.000000 0.0 0 0 131083921.210484 109427266.635440" />
<path d="M146492588.733976 118323208.501565 A1999869.000000 1999869.000000 0.0 0 0 149492268.999538 116591243.000000" />
<path d="M149252645.471387 120782688.241001 A750017.000000 750017.000000 0.0 0 0 148978108.777689 119758166.385054" />
<path d="M130709674 64151087
L130710187 108734594
" />
<path d="M132709617 62150906
L147490944 62150452
" />
<path d="M132709616.995475 62150874.020021 A2000226.000000 2000226.000000 0.0 0 0 130709674.000042 64151087.000000" />
<circle cx="94334756.000000" cy="84958266.000000" r="21010394.000000" /> 
<path d="M148978109 119758166
L131061405 109414270
" />
</g>
<g style="fill:#D8C852; fill-opacity:0.0; 
stroke:#D8C852; stroke-width:120000.000000; stroke-opacity:1; 
stroke-linecap:round; stroke-linejoin:round;">
<circle cx="127524745.000000" cy="116571972.000000" r="2500000.000000" /> 
<circle cx="112335223.000000" cy="69145378.000000" r="2500000.000000" /> 
<circle cx="94335222.000000" cy="101957876.000000" r="2500000.000000" /> 
<circle cx="58330221.000000" cy="89450881.000000" r="2500000.000000" /> 
<circle cx="58330222.000000" cy="72440886.000000" r="2500000.000000" /> 
</g>
<g style="fill:#D8C852; fill-opacity:0.0; 
stroke:#D8C852; stroke-width:150000.000000; stroke-opacity:1; 
stroke-linecap:round; stroke-linejoin:round;">
<path d="M56235220 57057882
L56235220 70857882
" />
<path d="M42435220 70857882
L56235220 70857882
" />
<path d="M56235220 57057882
L42435220 57057882
" />
<path d="M42435220 70857882
L42435220 57057882
" />
<path d="M74235220 52557882
L60435220 52557882
" />
<path d="M60435220 66357882
L60435220 52557882
" />
<path d="M74235220 52557882
L74235220 66357882
" />
<path d="M60435220 66357882
L74235220 66357882
" />
<path d="M78435226 63982880
L92235226 63982880
" />
<path d="M78435226 63982880
L78435226 50182880
" />
<path d="M92235226 50182880
L92235226 63982880
" />
<path d="M92235226 50182880
L78435226 50182880
" />
<path d="M96435224 66357883
L110235224 66357883
" />
<path d="M110235224 52557883
L110235224 66357883
" />
<path d="M96435224 66357883
L96435224 52557883
" />
<path d="M110235224 52557883
L96435224 52557883
" />
<path d="M128235221 54932873
L128235221 68732873
" />
<path d="M114435221 68732873
L114435221 54932873
" />
<path d="M128235221 54932873
L114435221 54932873
" />
<path d="M114435221 68732873
L128235221 68732873
" />
<path d="M42435223 87857875
L56235223 87857875
" />
<path d="M42435223 87857875
L42435223 74057875
" />
<path d="M56235223 74057875
L42435223 74057875
" />
<path d="M56235223 74057875
L56235223 87857875
" />
<path d="M60435222 83357881
L60435222 69557881
" />
<path d="M74235222 69557881
L60435222 69557881
" />
<path d="M74235222 69557881
L74235222 83357881
" />
<path d="M60435222 83357881
L74235222 83357881
" />
<path d="M110235219 69557882
L96435219 69557882
" />
<path d="M96435219 83357882
L96435219 69557882
" />
<path d="M96435219 83357882
L110235219 83357882
" />
<path d="M110235219 69557882
L110235219 83357882
" />
<path d="M114435221 85732882
L114435221 71932882
" />
<path d="M114435221 85732882
L128235221 85732882
" />
<path d="M128235221 71932882
L128235221 85732882
" />
<path d="M128235221 71932882
L114435221 71932882
" />
<path d="M42435220 104857880
L42435220 91057880
" />
<path d="M56235220 91057880
L42435220 91057880
" />
<path d="M56235220 91057880
L56235220 104857880
" />
<path d="M42435220 104857880
L56235220 104857880
" />
<path d="M60435223 100357881
L74235223 100357881
" />
<path d="M74235223 86557881
L60435223 86557881
" />
<path d="M74235223 86557881
L74235223 100357881
" />
<path d="M60435223 100357881
L60435223 86557881
" />
<path d="M78435224 97982880
L92235224 97982880
" />
<path d="M92235224 84182880
L78435224 84182880
" />
<path d="M78435224 97982880
L78435224 84182880
" />
<path d="M92235224 84182880
L92235224 97982880
" />
<path d="M110235219 86557881
L96435219 86557881
" />
<path d="M96435219 100357881
L96435219 86557881
" />
<path d="M96435219 100357881
L110235219 100357881
" />
<path d="M110235219 86557881
L110235219 100357881
" />
<path d="M128235222 88932878
L128235222 102732878
" />
<path d="M114435222 102732878
L114435222 88932878
" />
<path d="M114435222 102732878
L128235222 102732878
" />
<path d="M128235222 88932878
L114435222 88932878
" />
<path d="M91648221 119732879
L105448221 119732879
" />
<path d="M91648221 119732879
L91648221 105932879
" />
<path d="M105448221 105932879
L105448221 119732879
" />
<path d="M105448221 105932879
L91648221 105932879
" />
<path d="M126958284 110570532
L123386581 123900309
" />
<path d="M110056804 120328606
L113628507 106998829
" />
<path d="M110056804 120328606
L123386581 123900309
" />
<path d="M126958284 110570532
L113628507 106998829
" />
<path d="M146497251 120606062
L139597251 132557212
" />
<path d="M127646101 125657212
L139597251 132557212
" />
<path d="M146497251 120606062
L134546101 113706062
" />
<path d="M127646101 125657212
L134546101 113706062
" />
<path d="M92235223 67182879
L78435223 67182879
" />
<path d="M78435223 80982879
L92235223 80982879
" />
<path d="M92235223 67182879
L92235223 80982879
" />
<path d="M78435223 80982879
L78435223 67182879
" />
<g >
</g>
<g >
</g>
<g >
</g>
<g >
</g>
<g >
</g>
<g >
</g>
<g >
</g>
<g >
</g>
<g >
</g>
<g >
</g>
<g >
</g>
<g >
</g>
<g >
</g>
<g >
</g>
<g >
</g>
<g >
</g>
<g >
</g>
<g >
</g>
<g >
</g>
<g >
</g>
<g >
</g>
<g >
</g>
<g >
</g>
<g >
</g>
<g >
</g>
<g >
</g>
<g >
</g>
<g >
</g>
<g >
</g>
<g >
</g>
<g >
</g>
<g >
</g>
<g >
</g>
<g >
</g>
<g >
</g>
<g >
</g>
<g >
</g>
<g >
</g>
<g >
</g>
<g >
</g>
<g >
</g>
<g >
</g>
<g >
</g>
<g >
</g>
<g >
</g>
<g >
</g>
<g >
</g>
<g >
</g>
<g >
</g>
<g >
</g>
<g >
</g>
<g >
</g>
<g >
</g>
<g >
</g>
<g >
</g>
<g >
</g>
<g >
</g>
<g >
</g>
<g >
</g>
<g >
</g>
<g >
</g>
<g >
</g>
<g >
</g>
<g >
</g>
<g >
</g>
<g >
</g>
<g >
</g>
<g >
</g>
<g >
</g>
<g >
</g>
<g >
</g>
<g >
</g>
<g >
</g>
<g >
</g>
<g >
</g>
<g >
</g>
<g >
</g>
</g>
<g style="fill:#000000; fill-opacity:0.0; 
stroke:#000000; stroke-width:150000.000000; stroke-opacity:1; 
stroke-linecap:round; stroke-linejoin:round;">
</g>
<g style="fill:#D0D2CD; fill-opacity:0.0; 
stroke:#D0D2CD; stroke-width:150000.000000; stroke-opacity:1; 
stroke-linecap:round; stroke-linejoin:round;">
</g>
<g style="fill:#D0D2CD; fill-opacity:0.0; 
stroke:#D0D2CD; stroke-width:50000.000000; stroke-opacity:1; 
stroke-linecap:round; stroke-linejoin:round;">
<path d="M130166405.902871 52987682.362758 A159332091.000000 159332091.000000 0.0 0 0 40486405.929422 55117682.778992" />
<path d="M89923149 121707654
L98548151 121707653
" />
<path d="M149490934 64150596
L149491558 119892782
" />
<path d="M147490944.000968 62150408.000484 A2000092.000000 2000092.000000 0.0 0 0 145490808.000812 64150443.000000" />
<path d="M144990627.003348 65900431.999271 A500032.000000 500032.000000 0.0 0 0 145490631.999039 65400369.000000" />
<path d="M135209782 65900974
L144990627 65900370
" />
<path d="M132634369 130817896
L140103164 135130005
" />
<path d="M39960727.000600 106082670.002240 A749973.000000 749973.000000 0.0 0 0 40710672.000000 106832672.999477" />
<path d="M134709826.000784 65400972.002408 A499974.000000 499974.000000 0.0 0 0 135209782.000000 65900973.999676" />
<path d="M145490632 65400369
L145490808 64150443
" />
<path d="M89340910.128148 121429618.909322 A748554.000000 748554.000000 0.0 0 0 89923149.000000 121707653.998396" />
<path d="M134709603 64151039
L134709783 65400972
" />
<path d="M140103186.684927 135129968.640418 A749963.000000 749963.000000 0.0 0 0 141127683.192806 134855488.111319" />
<path d="M149490947.997696 64150596.000672 A2000048.000000 2000048.000000 0.0 0 0 147490944.000000 62150452.000484" />
<path d="M149252633.231077 120782681.174875 A1783359.000000 1783359.000000 0.0 0 0 149491558.109679 119892782.000110" />
<path d="M130709715.000225 61651085.001110 A499985.000000 499985.000000 0.0 0 0 131209679.000000 62151084.999559" />
<path d="M58335200 106832674
L40710672 106832673
" />
<path d="M141127683 134855488
L149252626 120782677
" />
<path d="M132634368.979432 130817896.035749 A68383549.000000 68383549.000000 0.0 0 0 98548151.000011 121707652.954821" />
<path d="M134709593.999620 64151038.999825 A2000094.000000 2000094.000000 0.0 0 0 132709617.000000 62150906.003422" />
<path d="M130710033.998396 53707651.001047 A748634.000000 748634.000000 0.0 0 0 130166405.905919 52987682.330429" />
<path d="M130710050 53707651
L130709678 61651085
" />
<path d="M89340939.703153 121429594.939596 A40216276.000000 40216276.000000 0.0 0 0 58335200.000060 106832674.415359" />
<path d="M40486421.499354 55117732.495307 A749832.000000 749832.000000 0.0 0 0 39960668.015609 55833147.000003" />
<path d="M131209679 62151085
L132709617 62150906
" />
<path d="M39960671 106082671
L39960668 55833147
" />
</g>
<g style="fill:#D0D2CD; fill-opacity:0.0; 
stroke:#D0D2CD; stroke-width:100000.000000; stroke-opacity:1; 
stroke-linecap:round; stroke-linejoin:round;">
<path d="M49985220 57807875
L48685220 57807875
" />
<path d="M47685220 57807875
L47685220 60707875
" />
<path d="M49985220 60707875
L48685220 60707875
" />
<path d="M50985220 60707875
L50985220 57807875
" />
<path d="M50985220.000000 57807875.000000 A500000.000000 500000.000000 0.0 0 0 49985220.000000 57807875.000000" />
<path d="M47685220.000000 60707875.000000 A500000.000000 500000.000000 0.0 0 0 48685220.000000 60707875.000000" />
<path d="M48685220.000000 57807875.000000 A500000.000000 500000.000000 0.0 0 0 47685220.000000 57807875.000000" />
<path d="M49985220.000000 60707875.000000 A500000.000000 500000.000000 0.0 0 0 50985220.000000 60707875.000000" />
<path d="M67985217 53307875
L66685217 53307875
" />
<path d="M68985217 56207875
L68985217 53307875
" />
<path d="M67985217 56207875
L66685217 56207875
" />
<path d="M65685217 53307875
L65685217 56207875
" />
<path d="M65685217.000000 56207875.000000 A500000.000000 500000.000000 0.0 0 0 66685217.000000 56207875.000000" />
<path d="M66685217.000000 53307875.000000 A500000.000000 500000.000000 0.0 0 0 65685217.000000 53307875.000000" />
<path d="M67985217.000000 56207875.000000 A500000.000000 500000.000000 0.0 0 0 68985217.000000 56207875.000000" />
<path d="M68985217.000000 53307875.000000 A500000.000000 500000.000000 0.0 0 0 67985217.000000 53307875.000000" />
<path d="M83685224 50932882
L83685224 53832882
" />
<path d="M86985224 53832882
L86985224 50932882
" />
<path d="M85985224 50932882
L84685224 50932882
" />
<path d="M85985224 53832882
L84685224 53832882
" />
<path d="M85985224.000000 53832882.000000 A500000.000000 500000.000000 0.0 0 0 86985224.000000 53832882.000000" />
<path d="M84685224.000000 50932882.000000 A500000.000000 500000.000000 0.0 0 0 83685224.000000 50932882.000000" />
<path d="M86985224.000000 50932882.000000 A500000.000000 500000.000000 0.0 0 0 85985224.000000 50932882.000000" />
<path d="M83685224.000000 53832882.000000 A500000.000000 500000.000000 0.0 0 0 84685224.000000 53832882.000000" />
<path d="M104985223 56207880
L104985223 53307880
" />
<path d="M103985223 53307880
L102685223 53307880
" />
<path d="M101685223 53307880
L101685223 56207880
" />
<path d="M103985223 56207880
L102685223 56207880
" />
<path d="M103985223.000000 56207880.000000 A500000.000000 500000.000000 0.0 0 0 104985223.000000 56207880.000000" />
<path d="M104985223.000000 53307880.000000 A500000.000000 500000.000000 0.0 0 0 103985223.000000 53307880.000000" />
<path d="M102685223.000000 53307880.000000 A500000.000000 500000.000000 0.0 0 0 101685223.000000 53307880.000000" />
<path d="M101685223.000000 56207880.000000 A500000.000000 500000.000000 0.0 0 0 102685223.000000 56207880.000000" />
<path d="M119685227 55682879
L119685227 58582879
" />
<path d="M121985227 55682879
L120685227 55682879
" />
<path d="M121985227 58582879
L120685227 58582879
" />
<path d="M122985227 58582879
L122985227 55682879
" />
<path d="M122985227.000000 55682879.000000 A500000.000000 500000.000000 0.0 0 0 121985227.000000 55682879.000000" />
<path d="M119685227.000000 58582879.000000 A500000.000000 500000.000000 0.0 0 0 120685227.000000 58582879.000000" />
<path d="M121985227.000000 58582879.000000 A500000.000000 500000.000000 0.0 0 0 122985227.000000 58582879.000000" />
<path d="M120685227.000000 55682879.000000 A500000.000000 500000.000000 0.0 0 0 119685227.000000 55682879.000000" />
<path d="M50985225 77707874
L50985225 74807874
" />
<path d="M49985225 74807874
L48685225 74807874
" />
<path d="M47685225 74807874
L47685225 77707874
" />
<path d="M49985225 77707874
L48685225 77707874
" />
<path d="M48685225.000000 74807874.000000 A500000.000000 500000.000000 0.0 0 0 47685225.000000 74807874.000000" />
<path d="M47685225.000000 77707874.000000 A500000.000000 500000.000000 0.0 0 0 48685225.000000 77707874.000000" />
<path d="M50985225.000000 74807874.000000 A500000.000000 500000.000000 0.0 0 0 49985225.000000 74807874.000000" />
<path d="M49985225.000000 77707874.000000 A500000.000000 500000.000000 0.0 0 0 50985225.000000 77707874.000000" />
<path d="M67985225 73207877
L66685225 73207877
" />
<path d="M67985225 70307877
L66685225 70307877
" />
<path d="M65685225 70307877
L65685225 73207877
" />
<path d="M68985225 73207877
L68985225 70307877
" />
<path d="M66685225.000000 70307877.000000 A500000.000000 500000.000000 0.0 0 0 65685225.000000 70307877.000000" />
<path d="M65685225.000000 73207877.000000 A500000.000000 500000.000000 0.0 0 0 66685225.000000 73207877.000000" />
<path d="M67985225.000000 73207877.000000 A500000.000000 500000.000000 0.0 0 0 68985225.000000 73207877.000000" />
<path d="M68985225.000000 70307877.000000 A500000.000000 500000.000000 0.0 0 0 67985225.000000 70307877.000000" />
<path d="M83685228 67932880
L83685228 70832880
" />
<path d="M86985228 70832880
L86985228 67932880
" />
<path d="M85985228 67932880
L84685228 67932880
" />
<path d="M85985228 70832880
L84685228 70832880
" />
<path d="M83685228.000000 70832880.000000 A500000.000000 500000.000000 0.0 0 0 84685228.000000 70832880.000000" />
<path d="M84685228.000000 67932880.000000 A500000.000000 500000.000000 0.0 0 0 83685228.000000 67932880.000000" />
<path d="M85985228.000000 70832880.000000 A500000.000000 500000.000000 0.0 0 0 86985228.000000 70832880.000000" />
<path d="M86985228.000000 67932880.000000 A500000.000000 500000.000000 0.0 0 0 85985228.000000 67932880.000000" />
<path d="M103985219 73207875
L102685219 73207875
" />
<path d="M101685219 70307875
L101685219 73207875
" />
<path d="M103985219 70307875
L102685219 70307875
" />
<path d="M104985219 73207875
L104985219 70307875
" />
<path d="M101685219.000000 73207875.000000 A500000.000000 500000.000000 0.0 0 0 102685219.000000 73207875.000000" />
<path d="M103985219.000000 73207875.000000 A500000.000000 500000.000000 0.0 0 0 104985219.000000 73207875.000000" />
<path d="M102685219.000000 70307875.000000 A500000.000000 500000.000000 0.0 0 0 101685219.000000 70307875.000000" />
<path d="M104985219.000000 70307875.000000 A500000.000000 500000.000000 0.0 0 0 103985219.000000 70307875.000000" />
<path d="M122985221 75582881
L122985221 72682881
" />
<path d="M119685221 72682881
L119685221 75582881
" />
<path d="M121985221 75582881
L120685221 75582881
" />
<path d="M121985221 72682881
L120685221 72682881
" />
<path d="M121985221.000000 75582881.000000 A500000.000000 500000.000000 0.0 0 0 122985221.000000 75582881.000000" />
<path d="M120685221.000000 72682881.000000 A500000.000000 500000.000000 0.0 0 0 119685221.000000 72682881.000000" />
<path d="M119685221.000000 75582881.000000 A500000.000000 500000.000000 0.0 0 0 120685221.000000 75582881.000000" />
<path d="M122985221.000000 72682881.000000 A500000.000000 500000.000000 0.0 0 0 121985221.000000 72682881.000000" />
<path d="M49985220 91807873
L48685220 91807873
" />
<path d="M49985220 94707873
L48685220 94707873
" />
<path d="M50985220 94707873
L50985220 91807873
" />
<path d="M47685220 91807873
L47685220 94707873
" />
<path d="M49985220.000000 94707873.000000 A500000.000000 500000.000000 0.0 0 0 50985220.000000 94707873.000000" />
<path d="M47685220.000000 94707873.000000 A500000.000000 500000.000000 0.0 0 0 48685220.000000 94707873.000000" />
<path d="M48685220.000000 91807873.000000 A500000.000000 500000.000000 0.0 0 0 47685220.000000 91807873.000000" />
<path d="M50985220.000000 91807873.000000 A500000.000000 500000.000000 0.0 0 0 49985220.000000 91807873.000000" />
<path d="M68985222 90207880
L68985222 87307880
" />
<path d="M67985222 90207880
L66685222 90207880
" />
<path d="M65685222 87307880
L65685222 90207880
" />
<path d="M67985222 87307880
L66685222 87307880
" />
<path d="M65685222.000000 90207880.000000 A500000.000000 500000.000000 0.0 0 0 66685222.000000 90207880.000000" />
<path d="M68985222.000000 87307880.000000 A500000.000000 500000.000000 0.0 0 0 67985222.000000 87307880.000000" />
<path d="M67985222.000000 90207880.000000 A500000.000000 500000.000000 0.0 0 0 68985222.000000 90207880.000000" />
<path d="M66685222.000000 87307880.000000 A500000.000000 500000.000000 0.0 0 0 65685222.000000 87307880.000000" />
<path d="M83685224 84932879
L83685224 87832879
" />
<path d="M85985224 84932879
L84685224 84932879
" />
<path d="M86985224 87832879
L86985224 84932879
" />
<path d="M85985224 87832879
L84685224 87832879
" />
<path d="M85985224.000000 87832879.000000 A500000.000000 500000.000000 0.0 0 0 86985224.000000 87832879.000000" />
<path d="M84685224.000000 84932879.000000 A500000.000000 500000.000000 0.0 0 0 83685224.000000 84932879.000000" />
<path d="M86985224.000000 84932879.000000 A500000.000000 500000.000000 0.0 0 0 85985224.000000 84932879.000000" />
<path d="M83685224.000000 87832879.000000 A500000.000000 500000.000000 0.0 0 0 84685224.000000 87832879.000000" />
<path d="M103985219 90207878
L102685219 90207878
" />
<path d="M104985219 90207878
L104985219 87307878
" />
<path d="M103985219 87307878
L102685219 87307878
" />
<path d="M101685219 87307878
L101685219 90207878
" />
<path d="M102685219.000000 87307878.000000 A500000.000000 500000.000000 0.0 0 0 101685219.000000 87307878.000000" />
<path d="M104985219.000000 87307878.000000 A500000.000000 500000.000000 0.0 0 0 103985219.000000 87307878.000000" />
<path d="M101685219.000000 90207878.000000 A500000.000000 500000.000000 0.0 0 0 102685219.000000 90207878.000000" />
<path d="M103985219.000000 90207878.000000 A500000.000000 500000.000000 0.0 0 0 104985219.000000 90207878.000000" />
<path d="M122985223 92582881
L122985223 89682881
" />
<path d="M121985223 92582881
L120685223 92582881
" />
<path d="M121985223 89682881
L120685223 89682881
" />
<path d="M119685223 89682881
L119685223 92582881
" />
<path d="M120685223.000000 89682881.000000 A500000.000000 500000.000000 0.0 0 0 119685223.000000 89682881.000000" />
<path d="M119685223.000000 92582881.000000 A500000.000000 500000.000000 0.0 0 0 120685223.000000 92582881.000000" />
<path d="M121985223.000000 92582881.000000 A500000.000000 500000.000000 0.0 0 0 122985223.000000 92582881.000000" />
<path d="M122985223.000000 89682881.000000 A500000.000000 500000.000000 0.0 0 0 121985223.000000 89682881.000000" />
<path d="M100198221 109582874
L100198221 106682874
" />
<path d="M99198221 106682874
L97898221 106682874
" />
<path d="M96898221 106682874
L96898221 109582874
" />
<path d="M99198221 109582874
L97898221 109582874
" />
<path d="M96898221.000000 109582874.000000 A500000.000000 500000.000000 0.0 0 0 97898221.000000 109582874.000000" />
<path d="M99198221.000000 109582874.000000 A500000.000000 500000.000000 0.0 0 0 100198221.000000 109582874.000000" />
<path d="M100198221.000000 106682874.000000 A500000.000000 500000.000000 0.0 0 0 99198221.000000 106682874.000000" />
<path d="M97898221.000000 106682874.000000 A500000.000000 500000.000000 0.0 0 0 96898221.000000 106682874.000000" />
<path d="M120942491 112737357
L121693066 109936172
" />
<path d="M118505511 109082069
L117754936 111883254
" />
<path d="M119976565 112478538
L118720862 112142073
" />
<path d="M120727140 109677353
L119471437 109340888
" />
<path d="M119471437.049600 109340888.013290 A500000.000000 500000.000000 0.0 0 0 118505511.200400 109082069.053697" />
<path d="M117754936.200400 111883254.053697 A500000.000000 500000.000000 0.0 1 0 118720862.049600 112142073.013290" />
<path d="M119976564.950400 112478537.986710 A500000.000000 500000.000000 0.0 0 0 120942490.799600 112737356.946303" />
<path d="M121693065.799600 109936171.946303 A500000.000000 500000.000000 0.0 1 0 120727139.950400 109677352.986710" />
<path d="M140709593 118130587
L139583759 117480587
" />
<path d="M138717734 116980587
L137267734 119492061
" />
<path d="M140125618 121142061
L141575618 118630587
" />
<path d="M139259593 120642061
L138133759 119992061
" />
<path d="M137267735.089606 119492061.629084 A499999.000000 499999.000000 0.0 0 0 138133758.660394 119992060.803928" />
<path d="M139259592.473581 120642060.696071 A500000.000000 500000.000000 0.0 1 0 140125617.776419 121142060.870916" />
<path d="M139583759.526419 117480587.303929 A500000.000000 500000.000000 0.0 1 0 138717734.223581 116980587.129084" />
<path d="M141575616.910394 118630586.370916 A499999.000000 499999.000000 0.0 0 0 140709593.339606 118130587.196072" />
<g >
</g>
<g >
</g>
<g >
</g>
<g >
</g>
<g >
</g>
<g >
</g>
<g >
</g>
<g >
</g>
<g >
</g>
<g >
</g>
<g >
</g>
<g >
</g>
<g >
</g>
<g >
</g>
<g >
</g>
<g >
</g>
<g >
</g>
<g >
</g>
<g >
</g>
<g >
</g>
<g >
</g>
<g >
</g>
<g >
</g>
<g >
</g>
<g >
</g>
<g >
</g>
<g >
</g>
<g >
</g>
<g >
</g>
<g >
</g>
<g >
</g>
<g >
</g>
<g >
</g>
<g >
</g>
<g >
</g>
<g >
</g>
<g >
</g>
<g >
</g>
<g >
</g>
<g >
</g>
<g >
</g>
<g >
</g>
<g >
</g>
<g >
</g>
<g >
</g>
<g >
</g>
<g >
</g>
<g >
</g>
<g >
</g>
<g >
</g>
<g >
</g>
<g >
</g>
<g >
</g>
<g >
</g>
<g >
</g>
<g >
</g>
<g >
</g>
<g >
</g>
<g >
</g>
<g >
</g>
<g >
</g>
<g >
</g>
<g >
</g>
<g >
</g>
<g >
</g>
<g >
</g>
<g >
</g>
<g >
</g>
<g >
</g>
<g >
</g>
<g >
</g>
<g >
</g>
<g >
</g>
<g >
</g>
<g >
</g>
<g >
</g>
<g >
</g>
</g> 
</svg>
